<svg width="415" height="142" viewBox="0 0 415 142" fill="none" xmlns="http://www.w3.org/2000/svg">
<path opacity="0.75" d="M101.988 20V18.064H104.996V10.576H104.852L102.58 13.552L101.044 12.352L103.716 8.832H107.396V18.064H109.764V20H101.988ZM114.878 20.192C113.417 20.192 112.334 19.6853 111.63 18.672C110.926 17.6587 110.574 16.24 110.574 14.416C110.574 12.592 110.926 11.1733 111.63 10.16C112.334 9.14667 113.417 8.64 114.878 8.64C116.339 8.64 117.422 9.14667 118.126 10.16C118.83 11.1733 119.182 12.592 119.182 14.416C119.182 16.24 118.83 17.6587 118.126 18.672C117.422 19.6853 116.339 20.192 114.878 20.192ZM114.878 18.16C115.518 18.16 115.961 17.9253 116.206 17.456C116.451 16.9867 116.574 16.3253 116.574 15.472V13.36C116.574 12.5067 116.451 11.8453 116.206 11.376C115.961 10.9067 115.518 10.672 114.878 10.672C114.238 10.672 113.795 10.9067 113.55 11.376C113.305 11.8453 113.182 12.5067 113.182 13.36V15.472C113.182 16.3253 113.305 16.9867 113.55 17.456C113.795 17.9253 114.238 18.16 114.878 18.16ZM124.472 20.192C123.011 20.192 121.928 19.6853 121.224 18.672C120.52 17.6587 120.168 16.24 120.168 14.416C120.168 12.592 120.52 11.1733 121.224 10.16C121.928 9.14667 123.011 8.64 124.472 8.64C125.933 8.64 127.016 9.14667 127.72 10.16C128.424 11.1733 128.776 12.592 128.776 14.416C128.776 16.24 128.424 17.6587 127.72 18.672C127.016 19.6853 125.933 20.192 124.472 20.192ZM124.472 18.16C125.112 18.16 125.555 17.9253 125.8 17.456C126.045 16.9867 126.168 16.3253 126.168 15.472V13.36C126.168 12.5067 126.045 11.8453 125.8 11.376C125.555 10.9067 125.112 10.672 124.472 10.672C123.832 10.672 123.389 10.9067 123.144 11.376C122.899 11.8453 122.776 12.5067 122.776 13.36V15.472C122.776 16.3253 122.899 16.9867 123.144 17.456C123.389 17.9253 123.832 18.16 124.472 18.16ZM132.13 20L139.874 8.832H141.986L134.242 20H132.13ZM132.946 14.976C132.007 14.976 131.292 14.7093 130.802 14.176C130.311 13.6427 130.066 12.8533 130.066 11.808C130.066 10.7627 130.311 9.97333 130.802 9.44C131.292 8.90667 132.007 8.64 132.946 8.64C133.884 8.64 134.599 8.90667 135.09 9.44C135.58 9.97333 135.826 10.7627 135.826 11.808C135.826 12.8533 135.58 13.6427 135.09 14.176C134.599 14.7093 133.884 14.976 132.946 14.976ZM132.946 13.6C133.223 13.6 133.431 13.4933 133.57 13.28C133.708 13.056 133.778 12.704 133.778 12.224V11.392C133.778 10.912 133.708 10.5653 133.57 10.352C133.431 10.128 133.223 10.016 132.946 10.016C132.668 10.016 132.46 10.128 132.322 10.352C132.183 10.5653 132.114 10.912 132.114 11.392V12.224C132.114 12.704 132.183 13.056 132.322 13.28C132.46 13.4933 132.668 13.6 132.946 13.6ZM141.17 20.192C140.231 20.192 139.516 19.9253 139.026 19.392C138.535 18.8587 138.29 18.0693 138.29 17.024C138.29 15.9787 138.535 15.1893 139.026 14.656C139.516 14.1227 140.231 13.856 141.17 13.856C142.108 13.856 142.823 14.1227 143.314 14.656C143.804 15.1893 144.05 15.9787 144.05 17.024C144.05 18.0693 143.804 18.8587 143.314 19.392C142.823 19.9253 142.108 20.192 141.17 20.192ZM141.17 18.816C141.447 18.816 141.655 18.7093 141.794 18.496C141.932 18.272 142.002 17.92 142.002 17.44V16.608C142.002 16.128 141.932 15.7813 141.794 15.568C141.655 15.344 141.447 15.232 141.17 15.232C140.892 15.232 140.684 15.344 140.546 15.568C140.407 15.7813 140.338 16.128 140.338 16.608V17.44C140.338 17.92 140.407 18.272 140.546 18.496C140.684 18.7093 140.892 18.816 141.17 18.816ZM154.689 18.592H154.609C154.534 18.8053 154.433 19.008 154.305 19.2C154.188 19.392 154.033 19.5627 153.841 19.712C153.649 19.8613 153.42 19.9787 153.153 20.064C152.897 20.1493 152.598 20.192 152.257 20.192C151.393 20.192 150.737 19.9093 150.289 19.344C149.852 18.768 149.633 17.9467 149.633 16.88V11.6H152.001V16.672C152.001 17.184 152.092 17.5787 152.273 17.856C152.454 18.1333 152.764 18.272 153.201 18.272C153.382 18.272 153.564 18.2453 153.745 18.192C153.926 18.1387 154.086 18.064 154.225 17.968C154.364 17.8613 154.476 17.7333 154.561 17.584C154.646 17.4347 154.689 17.2587 154.689 17.056V11.6H157.057V20H154.689V18.592ZM162.108 20.192C161.298 20.192 160.615 20.064 160.06 19.808C159.506 19.5413 159.01 19.168 158.572 18.688L159.964 17.28C160.263 17.6107 160.594 17.872 160.956 18.064C161.319 18.256 161.73 18.352 162.188 18.352C162.658 18.352 162.983 18.2827 163.164 18.144C163.346 17.9947 163.436 17.7973 163.436 17.552C163.436 17.1573 163.154 16.9227 162.588 16.848L161.676 16.736C159.788 16.5013 158.844 15.6373 158.844 14.144C158.844 13.7387 158.919 13.3707 159.068 13.04C159.228 12.6987 159.447 12.4107 159.724 12.176C160.012 11.9307 160.354 11.744 160.748 11.616C161.154 11.4773 161.607 11.408 162.108 11.408C162.546 11.408 162.93 11.44 163.26 11.504C163.602 11.5573 163.9 11.6427 164.156 11.76C164.423 11.8667 164.663 12.0053 164.876 12.176C165.1 12.336 165.319 12.5173 165.532 12.72L164.172 14.112C163.906 13.8453 163.602 13.6373 163.26 13.488C162.93 13.328 162.588 13.248 162.236 13.248C161.831 13.248 161.543 13.312 161.372 13.44C161.202 13.568 161.116 13.7387 161.116 13.952C161.116 14.176 161.175 14.352 161.292 14.48C161.42 14.5973 161.655 14.6827 161.996 14.736L162.94 14.864C164.786 15.1093 165.708 15.952 165.708 17.392C165.708 17.7973 165.623 18.1707 165.452 18.512C165.282 18.8533 165.036 19.152 164.716 19.408C164.407 19.6533 164.028 19.8453 163.58 19.984C163.143 20.1227 162.652 20.192 162.108 20.192ZM170.827 20.192C170.187 20.192 169.616 20.0907 169.115 19.888C168.613 19.6747 168.187 19.3813 167.835 19.008C167.493 18.624 167.232 18.16 167.051 17.616C166.88 17.072 166.795 16.464 166.795 15.792C166.795 15.1307 166.88 14.5333 167.051 14C167.221 13.456 167.472 12.992 167.803 12.608C168.144 12.224 168.56 11.9307 169.051 11.728C169.541 11.5147 170.101 11.408 170.731 11.408C171.424 11.408 172.016 11.5253 172.507 11.76C173.008 11.9947 173.413 12.3093 173.723 12.704C174.043 13.0987 174.272 13.5573 174.411 14.08C174.56 14.592 174.635 15.1307 174.635 15.696V16.4H169.243V16.528C169.243 17.0827 169.392 17.5253 169.691 17.856C169.989 18.176 170.459 18.336 171.099 18.336C171.589 18.336 171.989 18.24 172.299 18.048C172.608 17.8453 172.896 17.6053 173.163 17.328L174.347 18.8C173.973 19.2373 173.483 19.5787 172.875 19.824C172.277 20.0693 171.595 20.192 170.827 20.192ZM170.779 13.152C170.299 13.152 169.92 13.312 169.643 13.632C169.376 13.9413 169.243 14.3573 169.243 14.88V15.008H172.187V14.864C172.187 14.352 172.069 13.9413 171.835 13.632C171.611 13.312 171.259 13.152 170.779 13.152ZM176.723 13.44H175.539V11.6H176.723V10.608C176.723 9.79733 176.936 9.18933 177.363 8.784C177.79 8.368 178.414 8.16 179.235 8.16H180.771V10H179.091V11.6H180.771V13.44H179.091V20H176.723V13.44ZM187.048 18.592H186.968C186.894 18.8053 186.792 19.008 186.664 19.2C186.547 19.392 186.392 19.5627 186.2 19.712C186.008 19.8613 185.779 19.9787 185.512 20.064C185.256 20.1493 184.958 20.192 184.616 20.192C183.752 20.192 183.096 19.9093 182.648 19.344C182.211 18.768 181.992 17.9467 181.992 16.88V11.6H184.36V16.672C184.36 17.184 184.451 17.5787 184.632 17.856C184.814 18.1333 185.123 18.272 185.56 18.272C185.742 18.272 185.923 18.2453 186.104 18.192C186.286 18.1387 186.446 18.064 186.584 17.968C186.723 17.8613 186.835 17.7333 186.92 17.584C187.006 17.4347 187.048 17.2587 187.048 17.056V11.6H189.416V20H187.048V18.592ZM193.972 20C193.161 20 192.564 19.8027 192.18 19.408C191.806 19.0133 191.62 18.4427 191.62 17.696V8.16H193.988V18.16H195.044V20H193.972ZM200.245 8.16H202.613V15.152H202.709L203.749 13.6L205.429 11.6H208.053L205.253 14.816L208.373 20H205.557L203.669 16.448L202.613 17.632V20H200.245V8.16ZM209.479 20V11.6H211.847V13.024H211.943C212.092 12.5867 212.354 12.208 212.727 11.888C213.1 11.568 213.618 11.408 214.279 11.408C215.143 11.408 215.794 11.696 216.231 12.272C216.679 12.848 216.903 13.6693 216.903 14.736V20H214.535V14.928C214.535 14.384 214.45 13.984 214.279 13.728C214.108 13.4613 213.804 13.328 213.367 13.328C213.175 13.328 212.988 13.3547 212.807 13.408C212.626 13.4507 212.46 13.5253 212.311 13.632C212.172 13.7387 212.06 13.872 211.975 14.032C211.89 14.1813 211.847 14.3573 211.847 14.56V20H209.479ZM222.418 20.192C221.8 20.192 221.245 20.0907 220.754 19.888C220.274 19.6853 219.864 19.392 219.522 19.008C219.192 18.624 218.936 18.16 218.754 17.616C218.573 17.072 218.482 16.464 218.482 15.792C218.482 15.12 218.573 14.512 218.754 13.968C218.936 13.424 219.192 12.9653 219.522 12.592C219.864 12.208 220.274 11.9147 220.754 11.712C221.245 11.5093 221.8 11.408 222.418 11.408C223.037 11.408 223.586 11.5093 224.066 11.712C224.557 11.9147 224.968 12.208 225.298 12.592C225.64 12.9653 225.901 13.424 226.082 13.968C226.264 14.512 226.354 15.12 226.354 15.792C226.354 16.464 226.264 17.072 226.082 17.616C225.901 18.16 225.64 18.624 225.298 19.008C224.968 19.392 224.557 19.6853 224.066 19.888C223.586 20.0907 223.037 20.192 222.418 20.192ZM222.418 18.32C222.888 18.32 223.25 18.176 223.506 17.888C223.762 17.6 223.89 17.1893 223.89 16.656V14.944C223.89 14.4107 223.762 14 223.506 13.712C223.25 13.424 222.888 13.28 222.418 13.28C221.949 13.28 221.586 13.424 221.33 13.712C221.074 14 220.946 14.4107 220.946 14.944V16.656C220.946 17.1893 221.074 17.6 221.33 17.888C221.586 18.176 221.949 18.32 222.418 18.32ZM227.085 11.6H229.373L230.189 14.992L230.765 17.552H230.829L231.501 14.992L232.461 11.6H234.621L235.597 14.992L236.285 17.552H236.349L236.925 14.992L237.741 11.6H239.933L237.613 20H235.133L234.109 16.448L233.517 14.272H233.469L232.893 16.448L231.869 20H229.437L227.085 11.6ZM243.69 20C242.88 20 242.282 19.8027 241.898 19.408C241.525 19.0133 241.338 18.4427 241.338 17.696V8.16H243.706V18.16H244.762V20H243.69ZM249.686 20.192C249.046 20.192 248.475 20.0907 247.974 19.888C247.473 19.6747 247.046 19.3813 246.694 19.008C246.353 18.624 246.091 18.16 245.91 17.616C245.739 17.072 245.654 16.464 245.654 15.792C245.654 15.1307 245.739 14.5333 245.91 14C246.081 13.456 246.331 12.992 246.662 12.608C247.003 12.224 247.419 11.9307 247.91 11.728C248.401 11.5147 248.961 11.408 249.59 11.408C250.283 11.408 250.875 11.5253 251.366 11.76C251.867 11.9947 252.273 12.3093 252.582 12.704C252.902 13.0987 253.131 13.5573 253.27 14.08C253.419 14.592 253.494 15.1307 253.494 15.696V16.4H248.102V16.528C248.102 17.0827 248.251 17.5253 248.55 17.856C248.849 18.176 249.318 18.336 249.958 18.336C250.449 18.336 250.849 18.24 251.158 18.048C251.467 17.8453 251.755 17.6053 252.022 17.328L253.206 18.8C252.833 19.2373 252.342 19.5787 251.734 19.824C251.137 20.0693 250.454 20.192 249.686 20.192ZM249.638 13.152C249.158 13.152 248.779 13.312 248.502 13.632C248.235 13.9413 248.102 14.3573 248.102 14.88V15.008H251.046V14.864C251.046 14.352 250.929 13.9413 250.694 13.632C250.47 13.312 250.118 13.152 249.638 13.152ZM260.319 18.592H260.239C260.175 18.816 260.073 19.0293 259.935 19.232C259.796 19.424 259.625 19.5947 259.423 19.744C259.231 19.8827 259.007 19.9893 258.751 20.064C258.505 20.1493 258.249 20.192 257.983 20.192C256.916 20.192 256.111 19.8187 255.567 19.072C255.023 18.3147 254.751 17.2213 254.751 15.792C254.751 14.3627 255.023 13.2747 255.567 12.528C256.111 11.7813 256.916 11.408 257.983 11.408C258.527 11.408 259.007 11.5573 259.423 11.856C259.849 12.1547 260.121 12.5387 260.239 13.008H260.319V8.16H262.687V20H260.319V18.592ZM258.766 18.272C259.215 18.272 259.583 18.1653 259.871 17.952C260.169 17.728 260.319 17.424 260.319 17.04V14.56C260.319 14.176 260.169 13.8773 259.871 13.664C259.583 13.44 259.215 13.328 258.766 13.328C258.319 13.328 257.945 13.488 257.647 13.808C257.359 14.1173 257.215 14.5387 257.215 15.072V16.528C257.215 17.0613 257.359 17.488 257.647 17.808C257.945 18.1173 258.319 18.272 258.766 18.272ZM272.677 20.608C272.677 21.056 272.597 21.4507 272.437 21.792C272.288 22.1333 272.037 22.4213 271.685 22.656C271.333 22.9013 270.864 23.0827 270.277 23.2C269.701 23.328 268.986 23.392 268.133 23.392C267.408 23.392 266.789 23.344 266.277 23.248C265.776 23.1627 265.365 23.0347 265.045 22.864C264.736 22.704 264.506 22.5013 264.357 22.256C264.218 22.0213 264.149 21.7493 264.149 21.44C264.149 20.9707 264.288 20.6027 264.565 20.336C264.842 20.0693 265.226 19.904 265.717 19.84V19.664C265.312 19.5893 265.008 19.4187 264.805 19.152C264.602 18.8747 264.501 18.5547 264.501 18.192C264.501 17.968 264.544 17.776 264.629 17.616C264.725 17.4453 264.842 17.3013 264.981 17.184C265.13 17.056 265.301 16.9547 265.493 16.88C265.685 16.8053 265.877 16.7467 266.069 16.704V16.64C265.557 16.4053 265.178 16.0853 264.933 15.68C264.688 15.264 264.565 14.784 264.565 14.24C264.565 13.3867 264.858 12.704 265.445 12.192C266.042 11.6693 266.949 11.408 268.165 11.408C268.72 11.408 269.194 11.4613 269.589 11.568V11.248C269.589 10.8 269.696 10.48 269.909 10.288C270.133 10.0853 270.448 9.984 270.853 9.984H272.181V11.744H270.325V11.84C270.816 12.0747 271.178 12.4 271.413 12.816C271.648 13.2213 271.765 13.696 271.765 14.24C271.765 15.0827 271.466 15.76 270.869 16.272C270.282 16.7733 269.381 17.024 268.165 17.024C267.621 17.024 267.125 16.9653 266.677 16.848C266.432 17.008 266.309 17.232 266.309 17.52C266.309 17.7227 266.384 17.8827 266.533 18C266.693 18.1067 266.954 18.16 267.317 18.16H269.749C270.773 18.16 271.514 18.3733 271.973 18.8C272.442 19.2267 272.677 19.8293 272.677 20.608ZM270.453 20.928C270.453 20.6827 270.357 20.496 270.165 20.368C269.973 20.24 269.637 20.176 269.157 20.176H266.277C266.17 20.2827 266.09 20.4 266.037 20.528C265.994 20.6667 265.973 20.8 265.973 20.928C265.973 21.2373 266.106 21.4613 266.373 21.6C266.64 21.7493 267.093 21.824 267.733 21.824H268.693C269.333 21.824 269.786 21.7493 270.053 21.6C270.32 21.4613 270.453 21.2373 270.453 20.928ZM268.165 15.472C268.634 15.472 268.981 15.376 269.205 15.184C269.44 14.9813 269.557 14.6933 269.557 14.32V14.128C269.557 13.7547 269.44 13.472 269.205 13.28C268.981 13.0773 268.634 12.976 268.165 12.976C267.696 12.976 267.344 13.0773 267.109 13.28C266.885 13.472 266.773 13.7547 266.773 14.128V14.32C266.773 14.6933 266.885 14.9813 267.109 15.184C267.344 15.376 267.696 15.472 268.165 15.472ZM277.139 20.192C276.499 20.192 275.929 20.0907 275.427 19.888C274.926 19.6747 274.499 19.3813 274.147 19.008C273.806 18.624 273.545 18.16 273.363 17.616C273.193 17.072 273.107 16.464 273.107 15.792C273.107 15.1307 273.193 14.5333 273.363 14C273.534 13.456 273.785 12.992 274.115 12.608C274.457 12.224 274.873 11.9307 275.363 11.728C275.854 11.5147 276.414 11.408 277.043 11.408C277.737 11.408 278.329 11.5253 278.819 11.76C279.321 11.9947 279.726 12.3093 280.035 12.704C280.355 13.0987 280.585 13.5573 280.723 14.08C280.873 14.592 280.947 15.1307 280.947 15.696V16.4H275.555V16.528C275.555 17.0827 275.705 17.5253 276.003 17.856C276.302 18.176 276.771 18.336 277.411 18.336C277.902 18.336 278.302 18.24 278.611 18.048C278.921 17.8453 279.209 17.6053 279.475 17.328L280.659 18.8C280.286 19.2373 279.795 19.5787 279.187 19.824C278.59 20.0693 277.907 20.192 277.139 20.192ZM277.091 13.152C276.611 13.152 276.233 13.312 275.955 13.632C275.689 13.9413 275.555 14.3573 275.555 14.88V15.008H278.499V14.864C278.499 14.352 278.382 13.9413 278.147 13.632C277.923 13.312 277.571 13.152 277.091 13.152Z" fill="black"/>
<path opacity="0.5" d="M16.3321 80V78.064H19.3401V70.576H19.1961L16.9241 73.552L15.3881 72.352L18.0601 68.832H21.7401V78.064H24.1081V80H16.3321ZM27.2859 80L35.0299 68.832H37.1419L29.3979 80H27.2859ZM28.1019 74.976C27.1632 74.976 26.4485 74.7093 25.9579 74.176C25.4672 73.6427 25.2219 72.8533 25.2219 71.808C25.2219 70.7627 25.4672 69.9733 25.9579 69.44C26.4485 68.9067 27.1632 68.64 28.1019 68.64C29.0405 68.64 29.7552 68.9067 30.2459 69.44C30.7365 69.9733 30.9819 70.7627 30.9819 71.808C30.9819 72.8533 30.7365 73.6427 30.2459 74.176C29.7552 74.7093 29.0405 74.976 28.1019 74.976ZM28.1019 73.6C28.3792 73.6 28.5872 73.4933 28.7259 73.28C28.8645 73.056 28.9339 72.704 28.9339 72.224V71.392C28.9339 70.912 28.8645 70.5653 28.7259 70.352C28.5872 70.128 28.3792 70.016 28.1019 70.016C27.8245 70.016 27.6165 70.128 27.4779 70.352C27.3392 70.5653 27.2699 70.912 27.2699 71.392V72.224C27.2699 72.704 27.3392 73.056 27.4779 73.28C27.6165 73.4933 27.8245 73.6 28.1019 73.6ZM36.3259 80.192C35.3872 80.192 34.6725 79.9253 34.1819 79.392C33.6912 78.8587 33.4459 78.0693 33.4459 77.024C33.4459 75.9787 33.6912 75.1893 34.1819 74.656C34.6725 74.1227 35.3872 73.856 36.3259 73.856C37.2645 73.856 37.9792 74.1227 38.4699 74.656C38.9605 75.1893 39.2059 75.9787 39.2059 77.024C39.2059 78.0693 38.9605 78.8587 38.4699 79.392C37.9792 79.9253 37.2645 80.192 36.3259 80.192ZM36.3259 78.816C36.6032 78.816 36.8112 78.7093 36.9499 78.496C37.0885 78.272 37.1579 77.92 37.1579 77.44V76.608C37.1579 76.128 37.0885 75.7813 36.9499 75.568C36.8112 75.344 36.6032 75.232 36.3259 75.232C36.0485 75.232 35.8405 75.344 35.7019 75.568C35.5632 75.7813 35.4939 76.128 35.4939 76.608V77.44C35.4939 77.92 35.5632 78.272 35.7019 78.496C35.8405 78.7093 36.0485 78.816 36.3259 78.816Z" fill="black"/>
<path d="M200.05 80H192.146V77.808L195.586 74.864C195.896 74.5973 196.157 74.3573 196.37 74.144C196.584 73.92 196.754 73.7067 196.882 73.504C197.021 73.2907 197.117 73.0827 197.17 72.88C197.234 72.6773 197.266 72.4587 197.266 72.224V72C197.266 71.7867 197.224 71.6 197.138 71.44C197.053 71.28 196.941 71.1467 196.802 71.04C196.664 70.9333 196.504 70.8533 196.322 70.8C196.152 70.7467 195.976 70.72 195.794 70.72C195.528 70.72 195.293 70.7627 195.09 70.848C194.898 70.9333 194.728 71.0507 194.578 71.2C194.44 71.3387 194.322 71.504 194.226 71.696C194.13 71.8773 194.056 72.0747 194.002 72.288L191.906 71.488C192.034 71.104 192.21 70.7413 192.434 70.4C192.658 70.048 192.936 69.744 193.266 69.488C193.608 69.2213 194.008 69.0133 194.466 68.864C194.925 68.7147 195.442 68.64 196.018 68.64C196.626 68.64 197.165 68.7253 197.634 68.896C198.104 69.0667 198.498 69.3013 198.818 69.6C199.149 69.8987 199.4 70.256 199.57 70.672C199.741 71.0773 199.826 71.52 199.826 72C199.826 72.48 199.746 72.9173 199.586 73.312C199.426 73.7067 199.208 74.08 198.93 74.432C198.664 74.7733 198.349 75.0987 197.986 75.408C197.624 75.7173 197.245 76.032 196.85 76.352L194.77 77.984H200.05V80ZM205.628 80.192C204.167 80.192 203.084 79.6853 202.38 78.672C201.676 77.6587 201.324 76.24 201.324 74.416C201.324 72.592 201.676 71.1733 202.38 70.16C203.084 69.1467 204.167 68.64 205.628 68.64C207.089 68.64 208.172 69.1467 208.876 70.16C209.58 71.1733 209.932 72.592 209.932 74.416C209.932 76.24 209.58 77.6587 208.876 78.672C208.172 79.6853 207.089 80.192 205.628 80.192ZM205.628 78.16C206.268 78.16 206.711 77.9253 206.956 77.456C207.201 76.9867 207.324 76.3253 207.324 75.472V73.36C207.324 72.5067 207.201 71.8453 206.956 71.376C206.711 70.9067 206.268 70.672 205.628 70.672C204.988 70.672 204.545 70.9067 204.3 71.376C204.055 71.8453 203.932 72.5067 203.932 73.36V75.472C203.932 76.3253 204.055 76.9867 204.3 77.456C204.545 77.9253 204.988 78.16 205.628 78.16ZM213.286 80L221.03 68.832H223.142L215.398 80H213.286ZM214.102 74.976C213.163 74.976 212.449 74.7093 211.958 74.176C211.467 73.6427 211.222 72.8533 211.222 71.808C211.222 70.7627 211.467 69.9733 211.958 69.44C212.449 68.9067 213.163 68.64 214.102 68.64C215.041 68.64 215.755 68.9067 216.246 69.44C216.737 69.9733 216.982 70.7627 216.982 71.808C216.982 72.8533 216.737 73.6427 216.246 74.176C215.755 74.7093 215.041 74.976 214.102 74.976ZM214.102 73.6C214.379 73.6 214.587 73.4933 214.726 73.28C214.865 73.056 214.934 72.704 214.934 72.224V71.392C214.934 70.912 214.865 70.5653 214.726 70.352C214.587 70.128 214.379 70.016 214.102 70.016C213.825 70.016 213.617 70.128 213.478 70.352C213.339 70.5653 213.27 70.912 213.27 71.392V72.224C213.27 72.704 213.339 73.056 213.478 73.28C213.617 73.4933 213.825 73.6 214.102 73.6ZM222.326 80.192C221.387 80.192 220.673 79.9253 220.182 79.392C219.691 78.8587 219.446 78.0693 219.446 77.024C219.446 75.9787 219.691 75.1893 220.182 74.656C220.673 74.1227 221.387 73.856 222.326 73.856C223.265 73.856 223.979 74.1227 224.47 74.656C224.961 75.1893 225.206 75.9787 225.206 77.024C225.206 78.0693 224.961 78.8587 224.47 79.392C223.979 79.9253 223.265 80.192 222.326 80.192ZM222.326 78.816C222.603 78.816 222.811 78.7093 222.95 78.496C223.089 78.272 223.158 77.92 223.158 77.44V76.608C223.158 76.128 223.089 75.7813 222.95 75.568C222.811 75.344 222.603 75.232 222.326 75.232C222.049 75.232 221.841 75.344 221.702 75.568C221.563 75.7813 221.494 76.128 221.494 76.608V77.44C221.494 77.92 221.563 78.272 221.702 78.496C221.841 78.7093 222.049 78.816 222.326 78.816Z" fill="black"/>
<path d="M192.738 134V132.064H195.746V124.576H195.602L193.33 127.552L191.794 126.352L194.466 122.832H198.146V132.064H200.514V134H192.738ZM205.628 134.192C204.167 134.192 203.084 133.685 202.38 132.672C201.676 131.659 201.324 130.24 201.324 128.416C201.324 126.592 201.676 125.173 202.38 124.16C203.084 123.147 204.167 122.64 205.628 122.64C207.089 122.64 208.172 123.147 208.876 124.16C209.58 125.173 209.932 126.592 209.932 128.416C209.932 130.24 209.58 131.659 208.876 132.672C208.172 133.685 207.089 134.192 205.628 134.192ZM205.628 132.16C206.268 132.16 206.711 131.925 206.956 131.456C207.201 130.987 207.324 130.325 207.324 129.472V127.36C207.324 126.507 207.201 125.845 206.956 125.376C206.711 124.907 206.268 124.672 205.628 124.672C204.988 124.672 204.545 124.907 204.3 125.376C204.055 125.845 203.932 126.507 203.932 127.36V129.472C203.932 130.325 204.055 130.987 204.3 131.456C204.545 131.925 204.988 132.16 205.628 132.16ZM213.286 134L221.03 122.832H223.142L215.398 134H213.286ZM214.102 128.976C213.163 128.976 212.449 128.709 211.958 128.176C211.467 127.643 211.222 126.853 211.222 125.808C211.222 124.763 211.467 123.973 211.958 123.44C212.449 122.907 213.163 122.64 214.102 122.64C215.041 122.64 215.755 122.907 216.246 123.44C216.737 123.973 216.982 124.763 216.982 125.808C216.982 126.853 216.737 127.643 216.246 128.176C215.755 128.709 215.041 128.976 214.102 128.976ZM214.102 127.6C214.379 127.6 214.587 127.493 214.726 127.28C214.865 127.056 214.934 126.704 214.934 126.224V125.392C214.934 124.912 214.865 124.565 214.726 124.352C214.587 124.128 214.379 124.016 214.102 124.016C213.825 124.016 213.617 124.128 213.478 124.352C213.339 124.565 213.27 124.912 213.27 125.392V126.224C213.27 126.704 213.339 127.056 213.478 127.28C213.617 127.493 213.825 127.6 214.102 127.6ZM222.326 134.192C221.387 134.192 220.673 133.925 220.182 133.392C219.691 132.859 219.446 132.069 219.446 131.024C219.446 129.979 219.691 129.189 220.182 128.656C220.673 128.123 221.387 127.856 222.326 127.856C223.265 127.856 223.979 128.123 224.47 128.656C224.961 129.189 225.206 129.979 225.206 131.024C225.206 132.069 224.961 132.859 224.47 133.392C223.979 133.925 223.265 134.192 222.326 134.192ZM222.326 132.816C222.603 132.816 222.811 132.709 222.95 132.496C223.089 132.272 223.158 131.92 223.158 131.44V130.608C223.158 130.128 223.089 129.781 222.95 129.568C222.811 129.344 222.603 129.232 222.326 129.232C222.049 129.232 221.841 129.344 221.702 129.568C221.563 129.781 221.494 130.128 221.494 130.608V131.44C221.494 131.92 221.563 132.272 221.702 132.496C221.841 132.709 222.049 132.816 222.326 132.816Z" fill="black"/>
<path opacity="0.25" d="M5.08125 134.192C3.61992 134.192 2.53725 133.685 1.83325 132.672C1.12925 131.659 0.77725 130.24 0.77725 128.416C0.77725 126.592 1.12925 125.173 1.83325 124.16C2.53725 123.147 3.61992 122.64 5.08125 122.64C6.54258 122.64 7.62525 123.147 8.32925 124.16C9.03325 125.173 9.38525 126.592 9.38525 128.416C9.38525 130.24 9.03325 131.659 8.32925 132.672C7.62525 133.685 6.54258 134.192 5.08125 134.192ZM5.08125 132.16C5.72125 132.16 6.16392 131.925 6.40925 131.456C6.65458 130.987 6.77725 130.325 6.77725 129.472V127.36C6.77725 126.507 6.65458 125.845 6.40925 125.376C6.16392 124.907 5.72125 124.672 5.08125 124.672C4.44125 124.672 3.99858 124.907 3.75325 125.376C3.50792 125.845 3.38525 126.507 3.38525 127.36V129.472C3.38525 130.325 3.50792 130.987 3.75325 131.456C3.99858 131.925 4.44125 132.16 5.08125 132.16ZM12.355 134.176C11.875 134.176 11.5177 134.059 11.283 133.824C11.059 133.579 10.947 133.269 10.947 132.896V132.576C10.947 132.203 11.059 131.899 11.283 131.664C11.5177 131.419 11.875 131.296 12.355 131.296C12.835 131.296 13.187 131.419 13.411 131.664C13.6457 131.899 13.763 132.203 13.763 132.576V132.896C13.763 133.269 13.6457 133.579 13.411 133.824C13.187 134.059 12.835 134.176 12.355 134.176ZM16.3321 134V132.064H19.3401V124.576H19.1961L16.9241 127.552L15.3881 126.352L18.0601 122.832H21.7401V132.064H24.1081V134H16.3321ZM27.2859 134L35.0299 122.832H37.1419L29.3979 134H27.2859ZM28.1019 128.976C27.1632 128.976 26.4485 128.709 25.9579 128.176C25.4672 127.643 25.2219 126.853 25.2219 125.808C25.2219 124.763 25.4672 123.973 25.9579 123.44C26.4485 122.907 27.1632 122.64 28.1019 122.64C29.0405 122.64 29.7552 122.907 30.2459 123.44C30.7365 123.973 30.9819 124.763 30.9819 125.808C30.9819 126.853 30.7365 127.643 30.2459 128.176C29.7552 128.709 29.0405 128.976 28.1019 128.976ZM28.1019 127.6C28.3792 127.6 28.5872 127.493 28.7259 127.28C28.8645 127.056 28.9339 126.704 28.9339 126.224V125.392C28.9339 124.912 28.8645 124.565 28.7259 124.352C28.5872 124.128 28.3792 124.016 28.1019 124.016C27.8245 124.016 27.6165 124.128 27.4779 124.352C27.3392 124.565 27.2699 124.912 27.2699 125.392V126.224C27.2699 126.704 27.3392 127.056 27.4779 127.28C27.6165 127.493 27.8245 127.6 28.1019 127.6ZM36.3259 134.192C35.3872 134.192 34.6725 133.925 34.1819 133.392C33.6912 132.859 33.4459 132.069 33.4459 131.024C33.4459 129.979 33.6912 129.189 34.1819 128.656C34.6725 128.123 35.3872 127.856 36.3259 127.856C37.2645 127.856 37.9792 128.123 38.4699 128.656C38.9605 129.189 39.2059 129.979 39.2059 131.024C39.2059 132.069 38.9605 132.859 38.4699 133.392C37.9792 133.925 37.2645 134.192 36.3259 134.192ZM36.3259 132.816C36.6032 132.816 36.8112 132.709 36.9499 132.496C37.0885 132.272 37.1579 131.92 37.1579 131.44V130.608C37.1579 130.128 37.0885 129.781 36.9499 129.568C36.8112 129.344 36.6032 129.232 36.3259 129.232C36.0485 129.232 35.8405 129.344 35.7019 129.568C35.5632 129.781 35.4939 130.128 35.4939 130.608V131.44C35.4939 131.92 35.5632 132.272 35.7019 132.496C35.8405 132.709 36.0485 132.816 36.3259 132.816Z" fill="black"/>
<path opacity="0.5" d="M50.36 80V71.744H51.64V73.264H51.72C51.8693 72.8693 52.136 72.5173 52.52 72.208C52.904 71.8987 53.432 71.744 54.104 71.744H54.6V73.024H53.848C53.1547 73.024 52.6107 73.1573 52.216 73.424C51.832 73.68 51.64 74.0053 51.64 74.4V80H50.36ZM59.2609 80.192C58.6955 80.192 58.1835 80.0907 57.7249 79.888C57.2769 79.6853 56.8875 79.3973 56.5569 79.024C56.2369 78.64 55.9862 78.1867 55.8049 77.664C55.6342 77.1307 55.5489 76.5333 55.5489 75.872C55.5489 75.2213 55.6342 74.6293 55.8049 74.096C55.9862 73.5627 56.2369 73.1093 56.5569 72.736C56.8875 72.352 57.2769 72.0587 57.7249 71.856C58.1835 71.6533 58.6955 71.552 59.2609 71.552C59.8155 71.552 60.3115 71.6533 60.7489 71.856C61.1862 72.0587 61.5595 72.3413 61.8689 72.704C62.1782 73.056 62.4129 73.4773 62.5729 73.968C62.7435 74.4587 62.8289 74.9973 62.8289 75.584V76.192H56.8929V76.576C56.8929 76.928 56.9462 77.2587 57.0529 77.568C57.1702 77.8667 57.3302 78.128 57.5329 78.352C57.7462 78.576 58.0022 78.752 58.3009 78.88C58.6102 79.008 58.9569 79.072 59.3409 79.072C59.8635 79.072 60.3169 78.9493 60.7009 78.704C61.0955 78.4587 61.3995 78.1067 61.6129 77.648L62.5249 78.304C62.2582 78.8693 61.8422 79.328 61.2769 79.68C60.7115 80.0213 60.0395 80.192 59.2609 80.192ZM59.2609 72.624C58.9089 72.624 58.5889 72.688 58.3009 72.816C58.0129 72.9333 57.7622 73.104 57.5489 73.328C57.3462 73.552 57.1862 73.8187 57.0689 74.128C56.9515 74.4267 56.8929 74.7573 56.8929 75.12V75.232H61.4529V75.056C61.4529 74.32 61.2502 73.7333 60.8449 73.296C60.4502 72.848 59.9222 72.624 59.2609 72.624ZM64.9381 80V71.744H66.2181V73.088H66.2821C66.3781 72.8747 66.4848 72.6773 66.6021 72.496C66.7301 72.304 66.8795 72.1387 67.0501 72C67.2315 71.8613 67.4395 71.7547 67.6741 71.68C67.9088 71.5947 68.1861 71.552 68.5061 71.552C69.0501 71.552 69.5515 71.6853 70.0101 71.952C70.4688 72.208 70.8101 72.6347 71.0341 73.232H71.0661C71.2155 72.784 71.4928 72.3947 71.8981 72.064C72.3141 71.7227 72.8741 71.552 73.5781 71.552C74.4208 71.552 75.0768 71.8293 75.5461 72.384C76.0261 72.928 76.2661 73.7013 76.2661 74.704V80H74.9861V74.928C74.9861 74.192 74.8421 73.6373 74.5541 73.264C74.2661 72.8907 73.8075 72.704 73.1781 72.704C72.9221 72.704 72.6768 72.736 72.4421 72.8C72.2181 72.864 72.0155 72.96 71.8341 73.088C71.6528 73.216 71.5088 73.3813 71.4021 73.584C71.2955 73.776 71.2421 74.0053 71.2421 74.272V80H69.9621V74.928C69.9621 74.192 69.8181 73.6373 69.5301 73.264C69.2421 72.8907 68.7941 72.704 68.1861 72.704C67.9301 72.704 67.6848 72.736 67.4501 72.8C67.2155 72.864 67.0075 72.96 66.8261 73.088C66.6448 73.216 66.4955 73.3813 66.3781 73.584C66.2715 73.776 66.2181 74.0053 66.2181 74.272V80H64.9381ZM82.0109 80.192C81.4455 80.192 80.9335 80.0907 80.4749 79.888C80.0269 79.6853 79.6375 79.3973 79.3069 79.024C78.9869 78.64 78.7362 78.1867 78.5549 77.664C78.3842 77.1307 78.2989 76.5333 78.2989 75.872C78.2989 75.2213 78.3842 74.6293 78.5549 74.096C78.7362 73.5627 78.9869 73.1093 79.3069 72.736C79.6375 72.352 80.0269 72.0587 80.4749 71.856C80.9335 71.6533 81.4455 71.552 82.0109 71.552C82.5655 71.552 83.0615 71.6533 83.4989 71.856C83.9362 72.0587 84.3095 72.3413 84.6189 72.704C84.9282 73.056 85.1629 73.4773 85.3229 73.968C85.4935 74.4587 85.5789 74.9973 85.5789 75.584V76.192H79.6429V76.576C79.6429 76.928 79.6962 77.2587 79.8029 77.568C79.9202 77.8667 80.0802 78.128 80.2829 78.352C80.4962 78.576 80.7522 78.752 81.0509 78.88C81.3602 79.008 81.7069 79.072 82.0909 79.072C82.6135 79.072 83.0669 78.9493 83.4509 78.704C83.8455 78.4587 84.1495 78.1067 84.3629 77.648L85.2749 78.304C85.0082 78.8693 84.5922 79.328 84.0269 79.68C83.4615 80.0213 82.7895 80.192 82.0109 80.192ZM82.0109 72.624C81.6589 72.624 81.3389 72.688 81.0509 72.816C80.7629 72.9333 80.5122 73.104 80.2989 73.328C80.0962 73.552 79.9362 73.8187 79.8189 74.128C79.7015 74.4267 79.6429 74.7573 79.6429 75.12V75.232H84.2029V75.056C84.2029 74.32 84.0002 73.7333 83.5949 73.296C83.2002 72.848 82.6722 72.624 82.0109 72.624ZM87.6881 80V71.744H88.9681V73.088H89.0321C89.1281 72.8747 89.2348 72.6773 89.3521 72.496C89.4801 72.304 89.6295 72.1387 89.8001 72C89.9815 71.8613 90.1895 71.7547 90.4241 71.68C90.6588 71.5947 90.9361 71.552 91.2561 71.552C91.8001 71.552 92.3015 71.6853 92.7601 71.952C93.2188 72.208 93.5601 72.6347 93.7841 73.232H93.8161C93.9655 72.784 94.2428 72.3947 94.6481 72.064C95.0641 71.7227 95.6241 71.552 96.3281 71.552C97.1708 71.552 97.8268 71.8293 98.2961 72.384C98.7761 72.928 99.0161 73.7013 99.0161 74.704V80H97.7361V74.928C97.7361 74.192 97.5921 73.6373 97.3041 73.264C97.0161 72.8907 96.5575 72.704 95.9281 72.704C95.6721 72.704 95.4268 72.736 95.1921 72.8C94.9681 72.864 94.7655 72.96 94.5841 73.088C94.4028 73.216 94.2588 73.3813 94.1521 73.584C94.0455 73.776 93.9921 74.0053 93.9921 74.272V80H92.7121V74.928C92.7121 74.192 92.5681 73.6373 92.2801 73.264C91.9921 72.8907 91.5441 72.704 90.9361 72.704C90.6801 72.704 90.4348 72.736 90.2001 72.8C89.9655 72.864 89.7575 72.96 89.5761 73.088C89.3948 73.216 89.2455 73.3813 89.1281 73.584C89.0215 73.776 88.9681 74.0053 88.9681 74.272V80H87.6881ZM101.657 68.16H102.937V73.088H103.001C103.214 72.5653 103.524 72.1813 103.929 71.936C104.345 71.68 104.841 71.552 105.417 71.552C105.929 71.552 106.393 71.6533 106.809 71.856C107.225 72.0587 107.577 72.3467 107.865 72.72C108.164 73.0933 108.388 73.5467 108.537 74.08C108.697 74.6133 108.777 75.2107 108.777 75.872C108.777 76.5333 108.697 77.1307 108.537 77.664C108.388 78.1973 108.164 78.6507 107.865 79.024C107.577 79.3973 107.225 79.6853 106.809 79.888C106.393 80.0907 105.929 80.192 105.417 80.192C104.297 80.192 103.492 79.68 103.001 78.656H102.937V80H101.657V68.16ZM105.065 79.04C105.79 79.04 106.361 78.816 106.777 78.368C107.193 77.9093 107.401 77.312 107.401 76.576V75.168C107.401 74.432 107.193 73.84 106.777 73.392C106.361 72.9333 105.79 72.704 105.065 72.704C104.777 72.704 104.5 72.7467 104.233 72.832C103.977 72.9067 103.753 73.0133 103.561 73.152C103.369 73.2907 103.214 73.4613 103.097 73.664C102.99 73.856 102.937 74.064 102.937 74.288V77.36C102.937 77.6267 102.99 77.8667 103.097 78.08C103.214 78.2827 103.369 78.4587 103.561 78.608C103.753 78.7467 103.977 78.8533 104.233 78.928C104.5 79.0027 104.777 79.04 105.065 79.04ZM114.042 80.192C113.477 80.192 112.965 80.0907 112.506 79.888C112.058 79.6853 111.669 79.3973 111.338 79.024C111.018 78.64 110.767 78.1867 110.586 77.664C110.415 77.1307 110.33 76.5333 110.33 75.872C110.33 75.2213 110.415 74.6293 110.586 74.096C110.767 73.5627 111.018 73.1093 111.338 72.736C111.669 72.352 112.058 72.0587 112.506 71.856C112.965 71.6533 113.477 71.552 114.042 71.552C114.597 71.552 115.093 71.6533 115.53 71.856C115.967 72.0587 116.341 72.3413 116.65 72.704C116.959 73.056 117.194 73.4773 117.354 73.968C117.525 74.4587 117.61 74.9973 117.61 75.584V76.192H111.674V76.576C111.674 76.928 111.727 77.2587 111.834 77.568C111.951 77.8667 112.111 78.128 112.314 78.352C112.527 78.576 112.783 78.752 113.082 78.88C113.391 79.008 113.738 79.072 114.122 79.072C114.645 79.072 115.098 78.9493 115.482 78.704C115.877 78.4587 116.181 78.1067 116.394 77.648L117.306 78.304C117.039 78.8693 116.623 79.328 116.058 79.68C115.493 80.0213 114.821 80.192 114.042 80.192ZM114.042 72.624C113.69 72.624 113.37 72.688 113.082 72.816C112.794 72.9333 112.543 73.104 112.33 73.328C112.127 73.552 111.967 73.8187 111.85 74.128C111.733 74.4267 111.674 74.7573 111.674 75.12V75.232H116.234V75.056C116.234 74.32 116.031 73.7333 115.626 73.296C115.231 72.848 114.703 72.624 114.042 72.624ZM119.719 80V71.744H120.999V73.264H121.079C121.229 72.8693 121.495 72.5173 121.879 72.208C122.263 71.8987 122.791 71.744 123.463 71.744H123.959V73.024H123.207C122.514 73.024 121.97 73.1573 121.575 73.424C121.191 73.68 120.999 74.0053 120.999 74.4V80H119.719ZM128.62 80.192C128.055 80.192 127.543 80.0907 127.084 79.888C126.636 79.6853 126.247 79.3973 125.916 79.024C125.596 78.64 125.346 78.1867 125.164 77.664C124.994 77.1307 124.908 76.5333 124.908 75.872C124.908 75.2213 124.994 74.6293 125.164 74.096C125.346 73.5627 125.596 73.1093 125.916 72.736C126.247 72.352 126.636 72.0587 127.084 71.856C127.543 71.6533 128.055 71.552 128.62 71.552C129.175 71.552 129.671 71.6533 130.108 71.856C130.546 72.0587 130.919 72.3413 131.228 72.704C131.538 73.056 131.772 73.4773 131.932 73.968C132.103 74.4587 132.188 74.9973 132.188 75.584V76.192H126.252V76.576C126.252 76.928 126.306 77.2587 126.412 77.568C126.53 77.8667 126.69 78.128 126.892 78.352C127.106 78.576 127.362 78.752 127.66 78.88C127.97 79.008 128.316 79.072 128.7 79.072C129.223 79.072 129.676 78.9493 130.06 78.704C130.455 78.4587 130.759 78.1067 130.972 77.648L131.884 78.304C131.618 78.8693 131.202 79.328 130.636 79.68C130.071 80.0213 129.399 80.192 128.62 80.192ZM128.62 72.624C128.268 72.624 127.948 72.688 127.66 72.816C127.372 72.9333 127.122 73.104 126.908 73.328C126.706 73.552 126.546 73.8187 126.428 74.128C126.311 74.4267 126.252 74.7573 126.252 75.12V75.232H130.812V75.056C130.812 74.32 130.61 73.7333 130.204 73.296C129.81 72.848 129.282 72.624 128.62 72.624ZM139.578 78.656H139.514C139.012 79.68 138.207 80.192 137.098 80.192C136.586 80.192 136.122 80.0907 135.706 79.888C135.29 79.6853 134.932 79.3973 134.634 79.024C134.346 78.6507 134.122 78.1973 133.962 77.664C133.812 77.1307 133.738 76.5333 133.738 75.872C133.738 75.2107 133.812 74.6133 133.962 74.08C134.122 73.5467 134.346 73.0933 134.634 72.72C134.932 72.3467 135.29 72.0587 135.706 71.856C136.122 71.6533 136.586 71.552 137.098 71.552C137.674 71.552 138.164 71.68 138.57 71.936C138.986 72.1813 139.3 72.5653 139.514 73.088H139.578V68.16H140.858V80H139.578V78.656ZM137.45 79.04C137.738 79.04 138.01 79.0027 138.266 78.928C138.532 78.8533 138.762 78.7467 138.954 78.608C139.146 78.4587 139.295 78.2827 139.402 78.08C139.519 77.8667 139.578 77.6267 139.578 77.36V74.288C139.578 74.064 139.519 73.856 139.402 73.664C139.295 73.4613 139.146 73.2907 138.954 73.152C138.762 73.0133 138.532 72.9067 138.266 72.832C138.01 72.7467 137.738 72.704 137.45 72.704C136.724 72.704 136.154 72.9333 135.738 73.392C135.322 73.84 135.114 74.432 135.114 75.168V76.576C135.114 77.312 135.322 77.9093 135.738 78.368C136.154 78.816 136.724 79.04 137.45 79.04Z" fill="black"/>
<path d="M242.36 80C241.88 80 241.533 79.872 241.32 79.616C241.117 79.36 240.989 79.04 240.936 78.656H240.856C240.675 79.168 240.376 79.552 239.96 79.808C239.544 80.064 239.048 80.192 238.472 80.192C237.597 80.192 236.915 79.968 236.424 79.52C235.944 79.072 235.704 78.464 235.704 77.696C235.704 76.9173 235.987 76.32 236.552 75.904C237.128 75.488 238.019 75.28 239.224 75.28H240.856V74.464C240.856 73.8773 240.696 73.4293 240.376 73.12C240.056 72.8107 239.565 72.656 238.904 72.656C238.403 72.656 237.981 72.768 237.64 72.992C237.309 73.216 237.032 73.5147 236.808 73.888L236.04 73.168C236.264 72.72 236.621 72.3413 237.112 72.032C237.603 71.712 238.221 71.552 238.968 71.552C239.971 71.552 240.749 71.7973 241.304 72.288C241.859 72.7787 242.136 73.4613 242.136 74.336V78.88H243.08V80H242.36ZM238.68 79.104C239 79.104 239.293 79.0667 239.56 78.992C239.827 78.9173 240.056 78.8107 240.248 78.672C240.44 78.5333 240.589 78.3733 240.696 78.192C240.803 78.0107 240.856 77.8133 240.856 77.6V76.24H239.16C238.424 76.24 237.885 76.3467 237.544 76.56C237.213 76.7733 237.048 77.0827 237.048 77.488V77.824C237.048 78.2293 237.192 78.544 237.48 78.768C237.779 78.992 238.179 79.104 238.68 79.104ZM247.387 80.192C246.619 80.192 245.974 80.048 245.451 79.76C244.939 79.4613 244.496 79.0667 244.123 78.576L245.035 77.84C245.355 78.2453 245.712 78.56 246.107 78.784C246.502 78.9973 246.96 79.104 247.483 79.104C248.027 79.104 248.448 78.9867 248.747 78.752C249.056 78.5173 249.211 78.1867 249.211 77.76C249.211 77.44 249.104 77.168 248.891 76.944C248.688 76.7093 248.315 76.5493 247.771 76.464L247.115 76.368C246.731 76.3147 246.379 76.2347 246.059 76.128C245.739 76.0107 245.456 75.8613 245.211 75.68C244.976 75.488 244.79 75.2533 244.651 74.976C244.523 74.6987 244.459 74.368 244.459 73.984C244.459 73.5787 244.534 73.2267 244.683 72.928C244.832 72.6187 245.035 72.3627 245.291 72.16C245.558 71.9573 245.872 71.808 246.235 71.712C246.598 71.6053 246.987 71.552 247.403 71.552C248.075 71.552 248.635 71.6693 249.083 71.904C249.542 72.1387 249.942 72.464 250.283 72.88L249.435 73.648C249.254 73.392 248.987 73.1627 248.635 72.96C248.283 72.7467 247.84 72.64 247.307 72.64C246.774 72.64 246.368 72.7573 246.091 72.992C245.824 73.216 245.691 73.5253 245.691 73.92C245.691 74.3253 245.824 74.6187 246.091 74.8C246.368 74.9813 246.763 75.1147 247.275 75.2L247.915 75.296C248.832 75.4347 249.483 75.7013 249.867 76.096C250.251 76.48 250.443 76.9867 250.443 77.616C250.443 78.416 250.171 79.0453 249.627 79.504C249.083 79.9627 248.336 80.192 247.387 80.192ZM257.877 68.832V75.744C257.877 76.8107 258.074 77.6213 258.469 78.176C258.864 78.72 259.557 78.992 260.549 78.992C261.541 78.992 262.234 78.72 262.629 78.176C263.024 77.6213 263.221 76.8107 263.221 75.744V68.832H264.565V75.424C264.565 76.2347 264.49 76.9387 264.341 77.536C264.202 78.1333 263.973 78.6293 263.653 79.024C263.333 79.4187 262.912 79.712 262.389 79.904C261.877 80.096 261.248 80.192 260.501 80.192C259.754 80.192 259.125 80.096 258.613 79.904C258.112 79.712 257.706 79.4187 257.397 79.024C257.088 78.6293 256.864 78.1333 256.725 77.536C256.597 76.9387 256.533 76.2347 256.533 75.424V68.832H257.877ZM267.329 71.744H268.609V73.088H268.673C268.886 72.5653 269.195 72.1813 269.601 71.936C270.017 71.68 270.513 71.552 271.089 71.552C271.601 71.552 272.065 71.6533 272.481 71.856C272.897 72.0587 273.249 72.3467 273.537 72.72C273.835 73.0933 274.059 73.5467 274.209 74.08C274.369 74.6133 274.449 75.2107 274.449 75.872C274.449 76.5333 274.369 77.1307 274.209 77.664C274.059 78.1973 273.835 78.6507 273.537 79.024C273.249 79.3973 272.897 79.6853 272.481 79.888C272.065 80.0907 271.601 80.192 271.089 80.192C269.969 80.192 269.163 79.68 268.673 78.656H268.609V83.2H267.329V71.744ZM270.737 79.04C271.462 79.04 272.033 78.816 272.449 78.368C272.865 77.9093 273.073 77.312 273.073 76.576V75.168C273.073 74.432 272.865 73.84 272.449 73.392C272.033 72.9333 271.462 72.704 270.737 72.704C270.449 72.704 270.171 72.7467 269.905 72.832C269.649 72.9067 269.425 73.0133 269.233 73.152C269.041 73.2907 268.886 73.4613 268.769 73.664C268.662 73.856 268.609 74.064 268.609 74.288V77.36C268.609 77.6267 268.662 77.8667 268.769 78.08C268.886 78.2827 269.041 78.4587 269.233 78.608C269.425 78.7467 269.649 78.8533 269.905 78.928C270.171 79.0027 270.449 79.04 270.737 79.04ZM281.89 78.656H281.826C281.325 79.68 280.519 80.192 279.41 80.192C278.898 80.192 278.434 80.0907 278.018 79.888C277.602 79.6853 277.245 79.3973 276.946 79.024C276.658 78.6507 276.434 78.1973 276.274 77.664C276.125 77.1307 276.05 76.5333 276.05 75.872C276.05 75.2107 276.125 74.6133 276.274 74.08C276.434 73.5467 276.658 73.0933 276.946 72.72C277.245 72.3467 277.602 72.0587 278.018 71.856C278.434 71.6533 278.898 71.552 279.41 71.552C279.986 71.552 280.477 71.68 280.882 71.936C281.298 72.1813 281.613 72.5653 281.826 73.088H281.89V68.16H283.17V80H281.89V78.656ZM279.762 79.04C280.05 79.04 280.322 79.0027 280.578 78.928C280.845 78.8533 281.074 78.7467 281.266 78.608C281.458 78.4587 281.607 78.2827 281.714 78.08C281.831 77.8667 281.89 77.6267 281.89 77.36V74.288C281.89 74.064 281.831 73.856 281.714 73.664C281.607 73.4613 281.458 73.2907 281.266 73.152C281.074 73.0133 280.845 72.9067 280.578 72.832C280.322 72.7467 280.05 72.704 279.762 72.704C279.037 72.704 278.466 72.9333 278.05 73.392C277.634 73.84 277.426 74.432 277.426 75.168V76.576C277.426 77.312 277.634 77.9093 278.05 78.368C278.466 78.816 279.037 79.04 279.762 79.04ZM291.891 80C291.411 80 291.065 79.872 290.851 79.616C290.649 79.36 290.521 79.04 290.467 78.656H290.387C290.206 79.168 289.907 79.552 289.491 79.808C289.075 80.064 288.579 80.192 288.003 80.192C287.129 80.192 286.446 79.968 285.955 79.52C285.475 79.072 285.235 78.464 285.235 77.696C285.235 76.9173 285.518 76.32 286.083 75.904C286.659 75.488 287.55 75.28 288.755 75.28H290.387V74.464C290.387 73.8773 290.227 73.4293 289.907 73.12C289.587 72.8107 289.097 72.656 288.435 72.656C287.934 72.656 287.513 72.768 287.171 72.992C286.841 73.216 286.563 73.5147 286.339 73.888L285.571 73.168C285.795 72.72 286.153 72.3413 286.643 72.032C287.134 71.712 287.753 71.552 288.499 71.552C289.502 71.552 290.281 71.7973 290.835 72.288C291.39 72.7787 291.667 73.4613 291.667 74.336V78.88H292.611V80H291.891ZM288.211 79.104C288.531 79.104 288.825 79.0667 289.091 78.992C289.358 78.9173 289.587 78.8107 289.779 78.672C289.971 78.5333 290.121 78.3733 290.227 78.192C290.334 78.0107 290.387 77.8133 290.387 77.6V76.24H288.691C287.955 76.24 287.417 76.3467 287.075 76.56C286.745 76.7733 286.579 77.0827 286.579 77.488V77.824C286.579 78.2293 286.723 78.544 287.011 78.768C287.31 78.992 287.71 79.104 288.211 79.104ZM296.262 80C295.814 80 295.473 79.8773 295.238 79.632C295.014 79.376 294.902 79.0453 294.902 78.64V72.864H293.542V71.744H294.31C294.587 71.744 294.774 71.6907 294.87 71.584C294.977 71.4667 295.03 71.2693 295.03 70.992V69.456H296.182V71.744H297.99V72.864H296.182V78.88H297.862V80H296.262ZM303.089 80.192C302.524 80.192 302.012 80.0907 301.553 79.888C301.105 79.6853 300.716 79.3973 300.385 79.024C300.065 78.64 299.814 78.1867 299.633 77.664C299.462 77.1307 299.377 76.5333 299.377 75.872C299.377 75.2213 299.462 74.6293 299.633 74.096C299.814 73.5627 300.065 73.1093 300.385 72.736C300.716 72.352 301.105 72.0587 301.553 71.856C302.012 71.6533 302.524 71.552 303.089 71.552C303.644 71.552 304.14 71.6533 304.577 71.856C305.014 72.0587 305.388 72.3413 305.697 72.704C306.006 73.056 306.241 73.4773 306.401 73.968C306.572 74.4587 306.657 74.9973 306.657 75.584V76.192H300.721V76.576C300.721 76.928 300.774 77.2587 300.881 77.568C300.998 77.8667 301.158 78.128 301.361 78.352C301.574 78.576 301.83 78.752 302.129 78.88C302.438 79.008 302.785 79.072 303.169 79.072C303.692 79.072 304.145 78.9493 304.529 78.704C304.924 78.4587 305.228 78.1067 305.441 77.648L306.353 78.304C306.086 78.8693 305.67 79.328 305.105 79.68C304.54 80.0213 303.868 80.192 303.089 80.192ZM303.089 72.624C302.737 72.624 302.417 72.688 302.129 72.816C301.841 72.9333 301.59 73.104 301.377 73.328C301.174 73.552 301.014 73.8187 300.897 74.128C300.78 74.4267 300.721 74.7573 300.721 75.12V75.232H305.281V75.056C305.281 74.32 305.078 73.7333 304.673 73.296C304.278 72.848 303.75 72.624 303.089 72.624ZM310.126 80C309.678 80 309.337 79.8773 309.102 79.632C308.878 79.376 308.766 79.056 308.766 78.672V68.16H310.046V78.88H311.262V80H310.126ZM318.057 71.744H319.321L315.625 81.92C315.529 82.1653 315.433 82.368 315.337 82.528C315.241 82.6987 315.124 82.832 314.985 82.928C314.847 83.024 314.671 83.0933 314.457 83.136C314.255 83.1787 314.004 83.2 313.705 83.2H313.049V82.08H314.345L314.969 80.32L311.881 71.744H313.161L315.145 77.36L315.529 78.704H315.609L316.057 77.36L318.057 71.744ZM327.327 80.192C326.516 80.192 325.834 80.064 325.279 79.808C324.724 79.5413 324.228 79.168 323.791 78.688L325.183 77.28C325.482 77.6107 325.812 77.872 326.175 78.064C326.538 78.256 326.948 78.352 327.407 78.352C327.876 78.352 328.202 78.2827 328.383 78.144C328.564 77.9947 328.655 77.7973 328.655 77.552C328.655 77.1573 328.372 76.9227 327.807 76.848L326.895 76.736C325.007 76.5013 324.063 75.6373 324.063 74.144C324.063 73.7387 324.138 73.3707 324.287 73.04C324.447 72.6987 324.666 72.4107 324.943 72.176C325.231 71.9307 325.572 71.744 325.967 71.616C326.372 71.4773 326.826 71.408 327.327 71.408C327.764 71.408 328.148 71.44 328.479 71.504C328.82 71.5573 329.119 71.6427 329.375 71.76C329.642 71.8667 329.882 72.0053 330.095 72.176C330.319 72.336 330.538 72.5173 330.751 72.72L329.391 74.112C329.124 73.8453 328.82 73.6373 328.479 73.488C328.148 73.328 327.807 73.248 327.455 73.248C327.05 73.248 326.762 73.312 326.591 73.44C326.42 73.568 326.335 73.7387 326.335 73.952C326.335 74.176 326.394 74.352 326.511 74.48C326.639 74.5973 326.874 74.6827 327.215 74.736L328.159 74.864C330.004 75.1093 330.927 75.952 330.927 77.392C330.927 77.7973 330.842 78.1707 330.671 78.512C330.5 78.8533 330.255 79.152 329.935 79.408C329.626 79.6533 329.247 79.8453 328.799 79.984C328.362 80.1227 327.871 80.192 327.327 80.192ZM332.542 80V71.6H334.91V73.024H335.006C335.155 72.5867 335.416 72.208 335.79 71.888C336.163 71.568 336.68 71.408 337.342 71.408C338.206 71.408 338.856 71.696 339.294 72.272C339.742 72.848 339.966 73.6693 339.966 74.736V80H337.598V74.928C337.598 74.384 337.512 73.984 337.342 73.728C337.171 73.4613 336.867 73.328 336.43 73.328C336.238 73.328 336.051 73.3547 335.87 73.408C335.688 73.4507 335.523 73.5253 335.374 73.632C335.235 73.7387 335.123 73.872 335.038 74.032C334.952 74.1813 334.91 74.3573 334.91 74.56V80H332.542ZM343.257 70.704C342.777 70.704 342.425 70.5973 342.201 70.384C341.987 70.16 341.881 69.8773 341.881 69.536V69.184C341.881 68.8427 341.987 68.5653 342.201 68.352C342.425 68.128 342.777 68.016 343.257 68.016C343.737 68.016 344.083 68.128 344.297 68.352C344.521 68.5653 344.633 68.8427 344.633 69.184V69.536C344.633 69.8773 344.521 70.16 344.297 70.384C344.083 70.5973 343.737 70.704 343.257 70.704ZM342.073 71.6H344.441V80H342.073V71.6ZM346.651 71.6H349.019V73.008H349.099C349.216 72.5387 349.483 72.1547 349.899 71.856C350.326 71.5573 350.811 71.408 351.355 71.408C352.422 71.408 353.227 71.7813 353.771 72.528C354.315 73.2747 354.587 74.3627 354.587 75.792C354.587 77.2213 354.315 78.3147 353.771 79.072C353.227 79.8187 352.422 80.192 351.355 80.192C351.078 80.192 350.816 80.1493 350.571 80.064C350.326 79.9893 350.102 79.8827 349.899 79.744C349.707 79.5947 349.542 79.424 349.403 79.232C349.264 79.0293 349.163 78.816 349.099 78.592H349.019V83.2H346.651V71.6ZM350.571 78.272C351.019 78.272 351.387 78.1173 351.675 77.808C351.974 77.488 352.123 77.0613 352.123 76.528V75.072C352.123 74.5387 351.974 74.1173 351.675 73.808C351.387 73.488 351.019 73.328 350.571 73.328C350.123 73.328 349.75 73.44 349.451 73.664C349.163 73.8773 349.019 74.176 349.019 74.56V77.04C349.019 77.424 349.163 77.728 349.451 77.952C349.75 78.1653 350.123 78.272 350.571 78.272ZM356.385 71.6H358.753V73.008H358.833C358.951 72.5387 359.217 72.1547 359.633 71.856C360.06 71.5573 360.545 71.408 361.089 71.408C362.156 71.408 362.961 71.7813 363.505 72.528C364.049 73.2747 364.321 74.3627 364.321 75.792C364.321 77.2213 364.049 78.3147 363.505 79.072C362.961 79.8187 362.156 80.192 361.089 80.192C360.812 80.192 360.551 80.1493 360.305 80.064C360.06 79.9893 359.836 79.8827 359.633 79.744C359.441 79.5947 359.276 79.424 359.137 79.232C358.999 79.0293 358.897 78.816 358.833 78.592H358.753V83.2H356.385V71.6ZM360.305 78.272C360.753 78.272 361.121 78.1173 361.409 77.808C361.708 77.488 361.857 77.0613 361.857 76.528V75.072C361.857 74.5387 361.708 74.1173 361.409 73.808C361.121 73.488 360.753 73.328 360.305 73.328C359.857 73.328 359.484 73.44 359.185 73.664C358.897 73.8773 358.753 74.176 358.753 74.56V77.04C358.753 77.424 358.897 77.728 359.185 77.952C359.484 78.1653 359.857 78.272 360.305 78.272ZM369.624 80.192C368.984 80.192 368.413 80.0907 367.912 79.888C367.41 79.6747 366.984 79.3813 366.632 79.008C366.29 78.624 366.029 78.16 365.848 77.616C365.677 77.072 365.592 76.464 365.592 75.792C365.592 75.1307 365.677 74.5333 365.848 74C366.018 73.456 366.269 72.992 366.6 72.608C366.941 72.224 367.357 71.9307 367.848 71.728C368.338 71.5147 368.898 71.408 369.528 71.408C370.221 71.408 370.813 71.5253 371.304 71.76C371.805 71.9947 372.21 72.3093 372.52 72.704C372.84 73.0987 373.069 73.5573 373.208 74.08C373.357 74.592 373.432 75.1307 373.432 75.696V76.4H368.04V76.528C368.04 77.0827 368.189 77.5253 368.488 77.856C368.786 78.176 369.256 78.336 369.896 78.336C370.386 78.336 370.786 78.24 371.096 78.048C371.405 77.8453 371.693 77.6053 371.96 77.328L373.144 78.8C372.77 79.2373 372.28 79.5787 371.672 79.824C371.074 80.0693 370.392 80.192 369.624 80.192ZM369.576 73.152C369.096 73.152 368.717 73.312 368.44 73.632C368.173 73.9413 368.04 74.3573 368.04 74.88V75.008H370.984V74.864C370.984 74.352 370.866 73.9413 370.632 73.632C370.408 73.312 370.056 73.152 369.576 73.152ZM378.048 80C377.227 80 376.603 79.792 376.176 79.376C375.76 78.96 375.552 78.352 375.552 77.552V73.44H374.368V71.6H374.96C375.28 71.6 375.499 71.5253 375.616 71.376C375.733 71.216 375.792 70.992 375.792 70.704V69.328H377.92V71.6H379.584V73.44H377.92V78.16H379.456V80H378.048ZM384.077 80.192C383.266 80.192 382.584 80.064 382.029 79.808C381.474 79.5413 380.978 79.168 380.541 78.688L381.933 77.28C382.232 77.6107 382.562 77.872 382.925 78.064C383.288 78.256 383.698 78.352 384.157 78.352C384.626 78.352 384.952 78.2827 385.133 78.144C385.314 77.9947 385.405 77.7973 385.405 77.552C385.405 77.1573 385.122 76.9227 384.557 76.848L383.645 76.736C381.757 76.5013 380.813 75.6373 380.813 74.144C380.813 73.7387 380.888 73.3707 381.037 73.04C381.197 72.6987 381.416 72.4107 381.693 72.176C381.981 71.9307 382.322 71.744 382.717 71.616C383.122 71.4773 383.576 71.408 384.077 71.408C384.514 71.408 384.898 71.44 385.229 71.504C385.57 71.5573 385.869 71.6427 386.125 71.76C386.392 71.8667 386.632 72.0053 386.845 72.176C387.069 72.336 387.288 72.5173 387.501 72.72L386.141 74.112C385.874 73.8453 385.57 73.6373 385.229 73.488C384.898 73.328 384.557 73.248 384.205 73.248C383.8 73.248 383.512 73.312 383.341 73.44C383.17 73.568 383.085 73.7387 383.085 73.952C383.085 74.176 383.144 74.352 383.261 74.48C383.389 74.5973 383.624 74.6827 383.965 74.736L384.909 74.864C386.754 75.1093 387.677 75.952 387.677 77.392C387.677 77.7973 387.592 78.1707 387.421 78.512C387.25 78.8533 387.005 79.152 386.685 79.408C386.376 79.6533 385.997 79.8453 385.549 79.984C385.112 80.1227 384.621 80.192 384.077 80.192Z" fill="black"/>
<path opacity="0.25" d="M56.36 134C55.88 134 55.5333 133.872 55.32 133.616C55.1173 133.36 54.9893 133.04 54.936 132.656H54.856C54.6747 133.168 54.376 133.552 53.96 133.808C53.544 134.064 53.048 134.192 52.472 134.192C51.5973 134.192 50.9147 133.968 50.424 133.52C49.944 133.072 49.704 132.464 49.704 131.696C49.704 130.917 49.9867 130.32 50.552 129.904C51.128 129.488 52.0187 129.28 53.224 129.28H54.856V128.464C54.856 127.877 54.696 127.429 54.376 127.12C54.056 126.811 53.5653 126.656 52.904 126.656C52.4027 126.656 51.9813 126.768 51.64 126.992C51.3093 127.216 51.032 127.515 50.808 127.888L50.04 127.168C50.264 126.72 50.6213 126.341 51.112 126.032C51.6027 125.712 52.2213 125.552 52.968 125.552C53.9707 125.552 54.7493 125.797 55.304 126.288C55.8587 126.779 56.136 127.461 56.136 128.336V132.88H57.08V134H56.36ZM52.68 133.104C53 133.104 53.2933 133.067 53.56 132.992C53.8267 132.917 54.056 132.811 54.248 132.672C54.44 132.533 54.5893 132.373 54.696 132.192C54.8027 132.011 54.856 131.813 54.856 131.6V130.24H53.16C52.424 130.24 51.8853 130.347 51.544 130.56C51.2133 130.773 51.048 131.083 51.048 131.488V131.824C51.048 132.229 51.192 132.544 51.48 132.768C51.7787 132.992 52.1787 133.104 52.68 133.104ZM61.9789 134.192C61.4029 134.192 60.8855 134.091 60.4269 133.888C59.9682 133.685 59.5789 133.397 59.2589 133.024C58.9495 132.651 58.7095 132.197 58.5389 131.664C58.3789 131.131 58.2989 130.533 58.2989 129.872C58.2989 129.211 58.3789 128.613 58.5389 128.08C58.7095 127.547 58.9495 127.093 59.2589 126.72C59.5789 126.347 59.9682 126.059 60.4269 125.856C60.8855 125.653 61.4029 125.552 61.9789 125.552C62.8002 125.552 63.4562 125.733 63.9469 126.096C64.4482 126.448 64.8215 126.912 65.0669 127.488L63.9949 128.032C63.8455 127.605 63.6002 127.275 63.2589 127.04C62.9175 126.805 62.4909 126.688 61.9789 126.688C61.5949 126.688 61.2589 126.752 60.9709 126.88C60.6829 126.997 60.4429 127.168 60.2509 127.392C60.0589 127.605 59.9149 127.867 59.8189 128.176C59.7229 128.475 59.6749 128.805 59.6749 129.168V130.576C59.6749 131.301 59.8669 131.899 60.2509 132.368C60.6455 132.827 61.2215 133.056 61.9789 133.056C63.0135 133.056 63.7602 132.576 64.2189 131.616L65.1469 132.24C64.8802 132.837 64.4802 133.312 63.9469 133.664C63.4242 134.016 62.7682 134.192 61.9789 134.192ZM68.7778 134C68.3298 134 67.9884 133.877 67.7538 133.632C67.5298 133.376 67.4178 133.045 67.4178 132.64V126.864H66.0578V125.744H66.8258C67.1031 125.744 67.2898 125.691 67.3858 125.584C67.4924 125.467 67.5458 125.269 67.5458 124.992V123.456H68.6978V125.744H70.5058V126.864H68.6978V132.88H70.3778V134H68.7778ZM75.6046 134.192C75.0393 134.192 74.5273 134.091 74.0686 133.888C73.6206 133.685 73.2313 133.397 72.9006 133.024C72.5806 132.64 72.33 132.187 72.1486 131.664C71.978 131.131 71.8926 130.533 71.8926 129.872C71.8926 129.221 71.978 128.629 72.1486 128.096C72.33 127.563 72.5806 127.109 72.9006 126.736C73.2313 126.352 73.6206 126.059 74.0686 125.856C74.5273 125.653 75.0393 125.552 75.6046 125.552C76.1593 125.552 76.6553 125.653 77.0926 125.856C77.53 126.059 77.9033 126.341 78.2126 126.704C78.522 127.056 78.7566 127.477 78.9166 127.968C79.0873 128.459 79.1726 128.997 79.1726 129.584V130.192H73.2366V130.576C73.2366 130.928 73.29 131.259 73.3966 131.568C73.514 131.867 73.674 132.128 73.8766 132.352C74.09 132.576 74.346 132.752 74.6446 132.88C74.954 133.008 75.3006 133.072 75.6846 133.072C76.2073 133.072 76.6606 132.949 77.0446 132.704C77.4393 132.459 77.7433 132.107 77.9566 131.648L78.8686 132.304C78.602 132.869 78.186 133.328 77.6206 133.68C77.0553 134.021 76.3833 134.192 75.6046 134.192ZM75.6046 126.624C75.2526 126.624 74.9326 126.688 74.6446 126.816C74.3566 126.933 74.106 127.104 73.8926 127.328C73.69 127.552 73.53 127.819 73.4126 128.128C73.2953 128.427 73.2366 128.757 73.2366 129.12V129.232H77.7966V129.056C77.7966 128.32 77.594 127.733 77.1886 127.296C76.794 126.848 76.266 126.624 75.6046 126.624ZM86.5619 132.656H86.4979C85.9965 133.68 85.1912 134.192 84.0819 134.192C83.5699 134.192 83.1059 134.091 82.6899 133.888C82.2739 133.685 81.9165 133.397 81.6179 133.024C81.3299 132.651 81.1059 132.197 80.9459 131.664C80.7965 131.131 80.7219 130.533 80.7219 129.872C80.7219 129.211 80.7965 128.613 80.9459 128.08C81.1059 127.547 81.3299 127.093 81.6179 126.72C81.9165 126.347 82.2739 126.059 82.6899 125.856C83.1059 125.653 83.5699 125.552 84.0819 125.552C84.6579 125.552 85.1485 125.68 85.5539 125.936C85.9699 126.181 86.2845 126.565 86.4979 127.088H86.5619V122.16H87.8419V134H86.5619V132.656ZM84.4339 133.04C84.7219 133.04 84.9939 133.003 85.2499 132.928C85.5165 132.853 85.7459 132.747 85.9379 132.608C86.1299 132.459 86.2792 132.283 86.3859 132.08C86.5032 131.867 86.5619 131.627 86.5619 131.36V128.288C86.5619 128.064 86.5032 127.856 86.3859 127.664C86.2792 127.461 86.1299 127.291 85.9379 127.152C85.7459 127.013 85.5165 126.907 85.2499 126.832C84.9939 126.747 84.7219 126.704 84.4339 126.704C83.7085 126.704 83.1379 126.933 82.7219 127.392C82.3059 127.84 82.0979 128.432 82.0979 129.168V130.576C82.0979 131.312 82.3059 131.909 82.7219 132.368C83.1379 132.816 83.7085 133.04 84.4339 133.04ZM99.4324 132.656H99.3684C99.283 132.848 99.1764 133.04 99.0484 133.232C98.931 133.413 98.7817 133.579 98.6004 133.728C98.419 133.867 98.2004 133.979 97.9444 134.064C97.6884 134.149 97.3897 134.192 97.0484 134.192C96.195 134.192 95.5177 133.92 95.0164 133.376C94.515 132.821 94.2644 132.043 94.2644 131.04V125.744H95.5444V130.816C95.5444 132.299 96.1737 133.04 97.4324 133.04C97.6884 133.04 97.9337 133.008 98.1684 132.944C98.4137 132.88 98.627 132.784 98.8084 132.656C99.0004 132.528 99.1497 132.368 99.2564 132.176C99.3737 131.973 99.4324 131.733 99.4324 131.456V125.744H100.712V134H99.4324V132.656ZM103.438 125.744H104.718V127.088H104.782C104.995 126.565 105.305 126.181 105.71 125.936C106.126 125.68 106.622 125.552 107.198 125.552C107.71 125.552 108.174 125.653 108.59 125.856C109.006 126.059 109.358 126.347 109.646 126.72C109.945 127.093 110.169 127.547 110.318 128.08C110.478 128.613 110.558 129.211 110.558 129.872C110.558 130.533 110.478 131.131 110.318 131.664C110.169 132.197 109.945 132.651 109.646 133.024C109.358 133.397 109.006 133.685 108.59 133.888C108.174 134.091 107.71 134.192 107.198 134.192C106.078 134.192 105.273 133.68 104.782 132.656H104.718V137.2H103.438V125.744ZM106.846 133.04C107.571 133.04 108.142 132.816 108.558 132.368C108.974 131.909 109.182 131.312 109.182 130.576V129.168C109.182 128.432 108.974 127.84 108.558 127.392C108.142 126.933 107.571 126.704 106.846 126.704C106.558 126.704 106.281 126.747 106.014 126.832C105.758 126.907 105.534 127.013 105.342 127.152C105.15 127.291 104.995 127.461 104.878 127.664C104.771 127.856 104.718 128.064 104.718 128.288V131.36C104.718 131.627 104.771 131.867 104.878 132.08C104.995 132.283 105.15 132.459 105.342 132.608C105.534 132.747 105.758 132.853 106.014 132.928C106.281 133.003 106.558 133.04 106.846 133.04ZM115.839 134.192C115.285 134.192 114.778 134.091 114.319 133.888C113.861 133.685 113.466 133.397 113.135 133.024C112.815 132.64 112.565 132.187 112.383 131.664C112.202 131.131 112.111 130.533 112.111 129.872C112.111 129.221 112.202 128.629 112.383 128.096C112.565 127.563 112.815 127.109 113.135 126.736C113.466 126.352 113.861 126.059 114.319 125.856C114.778 125.653 115.285 125.552 115.839 125.552C116.394 125.552 116.895 125.653 117.343 125.856C117.802 126.059 118.197 126.352 118.527 126.736C118.858 127.109 119.114 127.563 119.295 128.096C119.477 128.629 119.567 129.221 119.567 129.872C119.567 130.533 119.477 131.131 119.295 131.664C119.114 132.187 118.858 132.64 118.527 133.024C118.197 133.397 117.802 133.685 117.343 133.888C116.895 134.091 116.394 134.192 115.839 134.192ZM115.839 133.056C116.533 133.056 117.098 132.843 117.535 132.416C117.973 131.989 118.191 131.339 118.191 130.464V129.28C118.191 128.405 117.973 127.755 117.535 127.328C117.098 126.901 116.533 126.688 115.839 126.688C115.146 126.688 114.581 126.901 114.143 127.328C113.706 127.755 113.487 128.405 113.487 129.28V130.464C113.487 131.339 113.706 131.989 114.143 132.416C114.581 132.843 115.146 133.056 115.839 133.056ZM121.673 134V125.744H122.953V127.088H123.017C123.219 126.619 123.502 126.245 123.865 125.968C124.238 125.691 124.734 125.552 125.353 125.552C126.206 125.552 126.878 125.829 127.369 126.384C127.87 126.928 128.121 127.701 128.121 128.704V134H126.841V128.928C126.841 127.445 126.217 126.704 124.969 126.704C124.713 126.704 124.462 126.736 124.217 126.8C123.982 126.864 123.769 126.96 123.577 127.088C123.385 127.216 123.23 127.381 123.113 127.584C123.006 127.776 122.953 128.005 122.953 128.272V134H121.673Z" fill="black"/>
<path d="M242.36 134C241.88 134 241.533 133.872 241.32 133.616C241.117 133.36 240.989 133.04 240.936 132.656H240.856C240.675 133.168 240.376 133.552 239.96 133.808C239.544 134.064 239.048 134.192 238.472 134.192C237.597 134.192 236.915 133.968 236.424 133.52C235.944 133.072 235.704 132.464 235.704 131.696C235.704 130.917 235.987 130.32 236.552 129.904C237.128 129.488 238.019 129.28 239.224 129.28H240.856V128.464C240.856 127.877 240.696 127.429 240.376 127.12C240.056 126.811 239.565 126.656 238.904 126.656C238.403 126.656 237.981 126.768 237.64 126.992C237.309 127.216 237.032 127.515 236.808 127.888L236.04 127.168C236.264 126.72 236.621 126.341 237.112 126.032C237.603 125.712 238.221 125.552 238.968 125.552C239.971 125.552 240.749 125.797 241.304 126.288C241.859 126.779 242.136 127.461 242.136 128.336V132.88H243.08V134H242.36ZM238.68 133.104C239 133.104 239.293 133.067 239.56 132.992C239.827 132.917 240.056 132.811 240.248 132.672C240.44 132.533 240.589 132.373 240.696 132.192C240.803 132.011 240.856 131.813 240.856 131.6V130.24H239.16C238.424 130.24 237.885 130.347 237.544 130.56C237.213 130.773 237.048 131.083 237.048 131.488V131.824C237.048 132.229 237.192 132.544 237.48 132.768C237.779 132.992 238.179 133.104 238.68 133.104ZM247.387 134.192C246.619 134.192 245.974 134.048 245.451 133.76C244.939 133.461 244.496 133.067 244.123 132.576L245.035 131.84C245.355 132.245 245.712 132.56 246.107 132.784C246.502 132.997 246.96 133.104 247.483 133.104C248.027 133.104 248.448 132.987 248.747 132.752C249.056 132.517 249.211 132.187 249.211 131.76C249.211 131.44 249.104 131.168 248.891 130.944C248.688 130.709 248.315 130.549 247.771 130.464L247.115 130.368C246.731 130.315 246.379 130.235 246.059 130.128C245.739 130.011 245.456 129.861 245.211 129.68C244.976 129.488 244.79 129.253 244.651 128.976C244.523 128.699 244.459 128.368 244.459 127.984C244.459 127.579 244.534 127.227 244.683 126.928C244.832 126.619 245.035 126.363 245.291 126.16C245.558 125.957 245.872 125.808 246.235 125.712C246.598 125.605 246.987 125.552 247.403 125.552C248.075 125.552 248.635 125.669 249.083 125.904C249.542 126.139 249.942 126.464 250.283 126.88L249.435 127.648C249.254 127.392 248.987 127.163 248.635 126.96C248.283 126.747 247.84 126.64 247.307 126.64C246.774 126.64 246.368 126.757 246.091 126.992C245.824 127.216 245.691 127.525 245.691 127.92C245.691 128.325 245.824 128.619 246.091 128.8C246.368 128.981 246.763 129.115 247.275 129.2L247.915 129.296C248.832 129.435 249.483 129.701 249.867 130.096C250.251 130.48 250.443 130.987 250.443 131.616C250.443 132.416 250.171 133.045 249.627 133.504C249.083 133.963 248.336 134.192 247.387 134.192ZM257.877 122.832V129.744C257.877 130.811 258.074 131.621 258.469 132.176C258.864 132.72 259.557 132.992 260.549 132.992C261.541 132.992 262.234 132.72 262.629 132.176C263.024 131.621 263.221 130.811 263.221 129.744V122.832H264.565V129.424C264.565 130.235 264.49 130.939 264.341 131.536C264.202 132.133 263.973 132.629 263.653 133.024C263.333 133.419 262.912 133.712 262.389 133.904C261.877 134.096 261.248 134.192 260.501 134.192C259.754 134.192 259.125 134.096 258.613 133.904C258.112 133.712 257.706 133.419 257.397 133.024C257.088 132.629 256.864 132.133 256.725 131.536C256.597 130.939 256.533 130.235 256.533 129.424V122.832H257.877ZM267.329 125.744H268.609V127.088H268.673C268.886 126.565 269.195 126.181 269.601 125.936C270.017 125.68 270.513 125.552 271.089 125.552C271.601 125.552 272.065 125.653 272.481 125.856C272.897 126.059 273.249 126.347 273.537 126.72C273.835 127.093 274.059 127.547 274.209 128.08C274.369 128.613 274.449 129.211 274.449 129.872C274.449 130.533 274.369 131.131 274.209 131.664C274.059 132.197 273.835 132.651 273.537 133.024C273.249 133.397 272.897 133.685 272.481 133.888C272.065 134.091 271.601 134.192 271.089 134.192C269.969 134.192 269.163 133.68 268.673 132.656H268.609V137.2H267.329V125.744ZM270.737 133.04C271.462 133.04 272.033 132.816 272.449 132.368C272.865 131.909 273.073 131.312 273.073 130.576V129.168C273.073 128.432 272.865 127.84 272.449 127.392C272.033 126.933 271.462 126.704 270.737 126.704C270.449 126.704 270.171 126.747 269.905 126.832C269.649 126.907 269.425 127.013 269.233 127.152C269.041 127.291 268.886 127.461 268.769 127.664C268.662 127.856 268.609 128.064 268.609 128.288V131.36C268.609 131.627 268.662 131.867 268.769 132.08C268.886 132.283 269.041 132.459 269.233 132.608C269.425 132.747 269.649 132.853 269.905 132.928C270.171 133.003 270.449 133.04 270.737 133.04ZM281.89 132.656H281.826C281.325 133.68 280.519 134.192 279.41 134.192C278.898 134.192 278.434 134.091 278.018 133.888C277.602 133.685 277.245 133.397 276.946 133.024C276.658 132.651 276.434 132.197 276.274 131.664C276.125 131.131 276.05 130.533 276.05 129.872C276.05 129.211 276.125 128.613 276.274 128.08C276.434 127.547 276.658 127.093 276.946 126.72C277.245 126.347 277.602 126.059 278.018 125.856C278.434 125.653 278.898 125.552 279.41 125.552C279.986 125.552 280.477 125.68 280.882 125.936C281.298 126.181 281.613 126.565 281.826 127.088H281.89V122.16H283.17V134H281.89V132.656ZM279.762 133.04C280.05 133.04 280.322 133.003 280.578 132.928C280.845 132.853 281.074 132.747 281.266 132.608C281.458 132.459 281.607 132.283 281.714 132.08C281.831 131.867 281.89 131.627 281.89 131.36V128.288C281.89 128.064 281.831 127.856 281.714 127.664C281.607 127.461 281.458 127.291 281.266 127.152C281.074 127.013 280.845 126.907 280.578 126.832C280.322 126.747 280.05 126.704 279.762 126.704C279.037 126.704 278.466 126.933 278.05 127.392C277.634 127.84 277.426 128.432 277.426 129.168V130.576C277.426 131.312 277.634 131.909 278.05 132.368C278.466 132.816 279.037 133.04 279.762 133.04ZM291.891 134C291.411 134 291.065 133.872 290.851 133.616C290.649 133.36 290.521 133.04 290.467 132.656H290.387C290.206 133.168 289.907 133.552 289.491 133.808C289.075 134.064 288.579 134.192 288.003 134.192C287.129 134.192 286.446 133.968 285.955 133.52C285.475 133.072 285.235 132.464 285.235 131.696C285.235 130.917 285.518 130.32 286.083 129.904C286.659 129.488 287.55 129.28 288.755 129.28H290.387V128.464C290.387 127.877 290.227 127.429 289.907 127.12C289.587 126.811 289.097 126.656 288.435 126.656C287.934 126.656 287.513 126.768 287.171 126.992C286.841 127.216 286.563 127.515 286.339 127.888L285.571 127.168C285.795 126.72 286.153 126.341 286.643 126.032C287.134 125.712 287.753 125.552 288.499 125.552C289.502 125.552 290.281 125.797 290.835 126.288C291.39 126.779 291.667 127.461 291.667 128.336V132.88H292.611V134H291.891ZM288.211 133.104C288.531 133.104 288.825 133.067 289.091 132.992C289.358 132.917 289.587 132.811 289.779 132.672C289.971 132.533 290.121 132.373 290.227 132.192C290.334 132.011 290.387 131.813 290.387 131.6V130.24H288.691C287.955 130.24 287.417 130.347 287.075 130.56C286.745 130.773 286.579 131.083 286.579 131.488V131.824C286.579 132.229 286.723 132.544 287.011 132.768C287.31 132.992 287.71 133.104 288.211 133.104ZM296.262 134C295.814 134 295.473 133.877 295.238 133.632C295.014 133.376 294.902 133.045 294.902 132.64V126.864H293.542V125.744H294.31C294.587 125.744 294.774 125.691 294.87 125.584C294.977 125.467 295.03 125.269 295.03 124.992V123.456H296.182V125.744H297.99V126.864H296.182V132.88H297.862V134H296.262ZM303.089 134.192C302.524 134.192 302.012 134.091 301.553 133.888C301.105 133.685 300.716 133.397 300.385 133.024C300.065 132.64 299.814 132.187 299.633 131.664C299.462 131.131 299.377 130.533 299.377 129.872C299.377 129.221 299.462 128.629 299.633 128.096C299.814 127.563 300.065 127.109 300.385 126.736C300.716 126.352 301.105 126.059 301.553 125.856C302.012 125.653 302.524 125.552 303.089 125.552C303.644 125.552 304.14 125.653 304.577 125.856C305.014 126.059 305.388 126.341 305.697 126.704C306.006 127.056 306.241 127.477 306.401 127.968C306.572 128.459 306.657 128.997 306.657 129.584V130.192H300.721V130.576C300.721 130.928 300.774 131.259 300.881 131.568C300.998 131.867 301.158 132.128 301.361 132.352C301.574 132.576 301.83 132.752 302.129 132.88C302.438 133.008 302.785 133.072 303.169 133.072C303.692 133.072 304.145 132.949 304.529 132.704C304.924 132.459 305.228 132.107 305.441 131.648L306.353 132.304C306.086 132.869 305.67 133.328 305.105 133.68C304.54 134.021 303.868 134.192 303.089 134.192ZM303.089 126.624C302.737 126.624 302.417 126.688 302.129 126.816C301.841 126.933 301.59 127.104 301.377 127.328C301.174 127.552 301.014 127.819 300.897 128.128C300.78 128.427 300.721 128.757 300.721 129.12V129.232H305.281V129.056C305.281 128.32 305.078 127.733 304.673 127.296C304.278 126.848 303.75 126.624 303.089 126.624ZM310.126 134C309.678 134 309.337 133.877 309.102 133.632C308.878 133.376 308.766 133.056 308.766 132.672V122.16H310.046V132.88H311.262V134H310.126ZM318.057 125.744H319.321L315.625 135.92C315.529 136.165 315.433 136.368 315.337 136.528C315.241 136.699 315.124 136.832 314.985 136.928C314.847 137.024 314.671 137.093 314.457 137.136C314.255 137.179 314.004 137.2 313.705 137.2H313.049V136.08H314.345L314.969 134.32L311.881 125.744H313.161L315.145 131.36L315.529 132.704H315.609L316.057 131.36L318.057 125.744ZM324.479 125.6H326.847V127.008H326.927C327.044 126.539 327.311 126.155 327.727 125.856C328.154 125.557 328.639 125.408 329.183 125.408C330.25 125.408 331.055 125.781 331.599 126.528C332.143 127.275 332.415 128.363 332.415 129.792C332.415 131.221 332.143 132.315 331.599 133.072C331.055 133.819 330.25 134.192 329.183 134.192C328.906 134.192 328.644 134.149 328.399 134.064C328.154 133.989 327.93 133.883 327.727 133.744C327.535 133.595 327.37 133.424 327.231 133.232C327.092 133.029 326.991 132.816 326.927 132.592H326.847V137.2H324.479V125.6ZM328.399 132.272C328.847 132.272 329.215 132.117 329.503 131.808C329.802 131.488 329.951 131.061 329.951 130.528V129.072C329.951 128.539 329.802 128.117 329.503 127.808C329.215 127.488 328.847 127.328 328.399 127.328C327.951 127.328 327.578 127.44 327.279 127.664C326.991 127.877 326.847 128.176 326.847 128.56V131.04C326.847 131.424 326.991 131.728 327.279 131.952C327.578 132.165 327.951 132.272 328.399 132.272ZM339.173 132.592H339.093C339.019 132.805 338.917 133.008 338.789 133.2C338.672 133.392 338.517 133.563 338.325 133.712C338.133 133.861 337.904 133.979 337.637 134.064C337.381 134.149 337.083 134.192 336.741 134.192C335.877 134.192 335.221 133.909 334.773 133.344C334.336 132.768 334.117 131.947 334.117 130.88V125.6H336.485V130.672C336.485 131.184 336.576 131.579 336.757 131.856C336.939 132.133 337.248 132.272 337.685 132.272C337.867 132.272 338.048 132.245 338.229 132.192C338.411 132.139 338.571 132.064 338.709 131.968C338.848 131.861 338.96 131.733 339.045 131.584C339.131 131.435 339.173 131.259 339.173 131.056V125.6H341.541V134H339.173V132.592ZM343.745 122.16H346.113V127.008H346.193C346.31 126.539 346.577 126.155 346.993 125.856C347.419 125.557 347.905 125.408 348.449 125.408C349.515 125.408 350.321 125.781 350.865 126.528C351.409 127.275 351.681 128.363 351.681 129.792C351.681 131.221 351.409 132.315 350.865 133.072C350.321 133.819 349.515 134.192 348.449 134.192C348.171 134.192 347.91 134.149 347.665 134.064C347.419 133.989 347.195 133.883 346.993 133.744C346.801 133.595 346.635 133.424 346.497 133.232C346.358 133.029 346.257 132.816 346.193 132.592H346.113V134H343.745V122.16ZM347.665 132.272C348.113 132.272 348.481 132.117 348.769 131.808C349.067 131.488 349.217 131.061 349.217 130.528V129.072C349.217 128.539 349.067 128.117 348.769 127.808C348.481 127.488 348.113 127.328 347.665 127.328C347.217 127.328 346.843 127.44 346.545 127.664C346.257 127.877 346.113 128.176 346.113 128.56V131.04C346.113 131.424 346.257 131.728 346.545 131.952C346.843 132.165 347.217 132.272 347.665 132.272ZM355.831 134C355.02 134 354.423 133.803 354.039 133.408C353.666 133.013 353.479 132.443 353.479 131.696V122.16H355.847V132.16H356.903V134H355.831ZM359.507 124.704C359.027 124.704 358.675 124.597 358.451 124.384C358.237 124.16 358.131 123.877 358.131 123.536V123.184C358.131 122.843 358.237 122.565 358.451 122.352C358.675 122.128 359.027 122.016 359.507 122.016C359.987 122.016 360.333 122.128 360.547 122.352C360.771 122.565 360.883 122.843 360.883 123.184V123.536C360.883 123.877 360.771 124.16 360.547 124.384C360.333 124.597 359.987 124.704 359.507 124.704ZM358.323 125.6H360.691V134H358.323V125.6ZM366.293 134.192C365.664 134.192 365.104 134.091 364.613 133.888C364.122 133.675 363.712 133.381 363.381 133.008C363.05 132.624 362.8 132.16 362.629 131.616C362.458 131.072 362.373 130.464 362.373 129.792C362.373 129.12 362.458 128.517 362.629 127.984C362.8 127.44 363.05 126.976 363.381 126.592C363.712 126.208 364.122 125.915 364.613 125.712C365.104 125.509 365.664 125.408 366.293 125.408C367.146 125.408 367.856 125.6 368.421 125.984C368.997 126.368 369.408 126.907 369.653 127.6L367.733 128.432C367.658 128.112 367.504 127.84 367.269 127.616C367.034 127.392 366.709 127.28 366.293 127.28C365.813 127.28 365.45 127.44 365.205 127.76C364.96 128.069 364.837 128.491 364.837 129.024V130.592C364.837 131.125 364.96 131.547 365.205 131.856C365.45 132.165 365.813 132.32 366.293 132.32C366.72 132.32 367.056 132.208 367.301 131.984C367.557 131.749 367.744 131.445 367.861 131.072L369.701 131.872C369.424 132.672 368.992 133.259 368.405 133.632C367.829 134.005 367.125 134.192 366.293 134.192ZM374.948 125.6H377.316V127.008H377.396C377.513 126.539 377.78 126.155 378.196 125.856C378.622 125.557 379.108 125.408 379.652 125.408C380.718 125.408 381.524 125.781 382.068 126.528C382.612 127.275 382.884 128.363 382.884 129.792C382.884 131.221 382.612 132.315 382.068 133.072C381.524 133.819 380.718 134.192 379.652 134.192C379.374 134.192 379.113 134.149 378.868 134.064C378.622 133.989 378.398 133.883 378.196 133.744C378.004 133.595 377.838 133.424 377.7 133.232C377.561 133.029 377.46 132.816 377.396 132.592H377.316V137.2H374.948V125.6ZM378.868 132.272C379.316 132.272 379.684 132.117 379.972 131.808C380.27 131.488 380.42 131.061 380.42 130.528V129.072C380.42 128.539 380.27 128.117 379.972 127.808C379.684 127.488 379.316 127.328 378.868 127.328C378.42 127.328 378.046 127.44 377.748 127.664C377.46 127.877 377.316 128.176 377.316 128.56V131.04C377.316 131.424 377.46 131.728 377.748 131.952C378.046 132.165 378.42 132.272 378.868 132.272ZM388.09 134.192C387.471 134.192 386.917 134.091 386.426 133.888C385.946 133.685 385.535 133.392 385.194 133.008C384.863 132.624 384.607 132.16 384.426 131.616C384.245 131.072 384.154 130.464 384.154 129.792C384.154 129.12 384.245 128.512 384.426 127.968C384.607 127.424 384.863 126.965 385.194 126.592C385.535 126.208 385.946 125.915 386.426 125.712C386.917 125.509 387.471 125.408 388.09 125.408C388.709 125.408 389.258 125.509 389.738 125.712C390.229 125.915 390.639 126.208 390.97 126.592C391.311 126.965 391.573 127.424 391.754 127.968C391.935 128.512 392.026 129.12 392.026 129.792C392.026 130.464 391.935 131.072 391.754 131.616C391.573 132.16 391.311 132.624 390.97 133.008C390.639 133.392 390.229 133.685 389.738 133.888C389.258 134.091 388.709 134.192 388.09 134.192ZM388.09 132.32C388.559 132.32 388.922 132.176 389.178 131.888C389.434 131.6 389.562 131.189 389.562 130.656V128.944C389.562 128.411 389.434 128 389.178 127.712C388.922 127.424 388.559 127.28 388.09 127.28C387.621 127.28 387.258 127.424 387.002 127.712C386.746 128 386.618 128.411 386.618 128.944V130.656C386.618 131.189 386.746 131.6 387.002 131.888C387.258 132.176 387.621 132.32 388.09 132.32ZM396.561 134.192C395.751 134.192 395.068 134.064 394.513 133.808C393.959 133.541 393.463 133.168 393.025 132.688L394.417 131.28C394.716 131.611 395.047 131.872 395.409 132.064C395.772 132.256 396.183 132.352 396.641 132.352C397.111 132.352 397.436 132.283 397.617 132.144C397.799 131.995 397.889 131.797 397.889 131.552C397.889 131.157 397.607 130.923 397.041 130.848L396.129 130.736C394.241 130.501 393.297 129.637 393.297 128.144C393.297 127.739 393.372 127.371 393.521 127.04C393.681 126.699 393.9 126.411 394.177 126.176C394.465 125.931 394.807 125.744 395.201 125.616C395.607 125.477 396.06 125.408 396.561 125.408C396.999 125.408 397.383 125.44 397.713 125.504C398.055 125.557 398.353 125.643 398.609 125.76C398.876 125.867 399.116 126.005 399.329 126.176C399.553 126.336 399.772 126.517 399.985 126.72L398.625 128.112C398.359 127.845 398.055 127.637 397.713 127.488C397.383 127.328 397.041 127.248 396.689 127.248C396.284 127.248 395.996 127.312 395.825 127.44C395.655 127.568 395.569 127.739 395.569 127.952C395.569 128.176 395.628 128.352 395.745 128.48C395.873 128.597 396.108 128.683 396.449 128.736L397.393 128.864C399.239 129.109 400.161 129.952 400.161 131.392C400.161 131.797 400.076 132.171 399.905 132.512C399.735 132.853 399.489 133.152 399.169 133.408C398.86 133.653 398.481 133.845 398.033 133.984C397.596 134.123 397.105 134.192 396.561 134.192ZM404.595 134C403.774 134 403.15 133.792 402.723 133.376C402.307 132.96 402.099 132.352 402.099 131.552V127.44H400.915V125.6H401.507C401.827 125.6 402.046 125.525 402.163 125.376C402.28 125.216 402.339 124.992 402.339 124.704V123.328H404.467V125.6H406.131V127.44H404.467V132.16H406.003V134H404.595ZM410.624 134.192C409.813 134.192 409.131 134.064 408.576 133.808C408.021 133.541 407.525 133.168 407.088 132.688L408.48 131.28C408.779 131.611 409.109 131.872 409.472 132.064C409.835 132.256 410.245 132.352 410.704 132.352C411.173 132.352 411.499 132.283 411.68 132.144C411.861 131.995 411.952 131.797 411.952 131.552C411.952 131.157 411.669 130.923 411.104 130.848L410.192 130.736C408.304 130.501 407.36 129.637 407.36 128.144C407.36 127.739 407.435 127.371 407.584 127.04C407.744 126.699 407.963 126.411 408.24 126.176C408.528 125.931 408.869 125.744 409.264 125.616C409.669 125.477 410.123 125.408 410.624 125.408C411.061 125.408 411.445 125.44 411.776 125.504C412.117 125.557 412.416 125.643 412.672 125.76C412.939 125.867 413.179 126.005 413.392 126.176C413.616 126.336 413.835 126.517 414.048 126.72L412.688 128.112C412.421 127.845 412.117 127.637 411.776 127.488C411.445 127.328 411.104 127.248 410.752 127.248C410.347 127.248 410.059 127.312 409.888 127.44C409.717 127.568 409.632 127.739 409.632 127.952C409.632 128.176 409.691 128.352 409.808 128.48C409.936 128.597 410.171 128.683 410.512 128.736L411.456 128.864C413.301 129.109 414.224 129.952 414.224 131.392C414.224 131.797 414.139 132.171 413.968 132.512C413.797 132.853 413.552 133.152 413.232 133.408C412.923 133.653 412.544 133.845 412.096 133.984C411.659 134.123 411.168 134.192 410.624 134.192Z" fill="black"/>
</svg>
