<?xml version="1.0" encoding="UTF-8" standalone="no"?>
<!DOCTYPE svg PUBLIC "-//W3C//DTD SVG 1.1//EN" "http://www.w3.org/Graphics/SVG/1.1/DTD/svg11.dtd">
<svg xmlns="http://www.w3.org/2000/svg" xmlns:xlink="http://www.w3.org/1999/xlink" version="1.1" width="197pt" height="50pt" viewBox="0 0 197 50">
<g enable-background="new">
<g id="Layer-1" data-name="Layer 1">
<clipPath id="cp0">
<path transform="matrix(1,0,0,-1,0,50)" d="M 0 50 L 197 50 L 197 0 L 0 0 Z "/>
</clipPath>
<g clip-path="url(#cp0)">
<path transform="matrix(1,0,0,-1,40.125,49.9688)" d="M 0 0 L -30 0 C -35.522 0 -40 4.477 -40 10 L -40 40 C -40 45.523 -35.522 50 -30 50 L 0 50 C 5.522 50 10 45.523 10 40 L 10 10 C 10 4.477 5.522 0 0 0 "/>
<path transform="matrix(1,0,0,-1,33.668,13.059101)" d="M 0 0 C -1.84 0 -3.332 -1.492 -3.332 -3.332 C -3.332 -3.881 -3.198 -4.4 -2.963 -4.857 L -15.857 -17.751 C -16.303 -17.53 -16.805 -17.406 -17.336 -17.406 C -19.176 -17.406 -20.668 -18.897 -20.668 -20.737 C -20.668 -22.578 -19.176 -24.069 -17.336 -24.069 C -15.496 -24.069 -14.004 -22.578 -14.004 -20.737 C -14.004 -20.188 -14.138 -19.669 -14.373 -19.212 L -1.479 -6.318 C -1.033 -6.539 -.531 -6.664 0 -6.664 C 1.84 -6.664 3.332 -5.172 3.332 -3.332 C 3.332 -1.492 1.84 0 0 0 " fill="#ffffff"/>
<path transform="matrix(1,0,0,-1,84.4727,25.2407)" d="M 0 0 C 1.941 .405 2.912 1.856 2.912 4.352 C 2.912 5.696 2.539 6.677 1.792 7.296 C 1.045 7.915 -.149 8.224 -1.792 8.224 C -2.091 8.224 -2.277 8.197 -2.352 8.144 C -2.427 8.09 -2.475 7.925 -2.496 7.648 C -2.581 6.517 -2.646 5.328 -2.688 4.08 C -2.73 2.832 -2.773 1.6 -2.815 .384 Z M -9.151 10.848 L -8.399 10.848 C -8.091 10.848 -7.749 10.842 -7.376 10.832 C -7.003 10.821 -6.619 10.816 -6.224 10.816 L -5.12 10.816 C -4.821 10.816 -4.411 10.821 -3.888 10.832 C -3.365 10.842 -2.826 10.858 -2.271 10.88 C -1.653 10.901 -.981 10.933 -.256 10.976 C 1.237 10.976 2.48 10.8 3.473 10.448 C 4.464 10.096 5.259 9.632 5.856 9.056 C 6.453 8.48 6.875 7.824 7.12 7.088 C 7.365 6.352 7.488 5.589 7.488 4.8 C 7.488 3.84 7.28 2.922 6.864 2.048 C 6.448 1.173 5.889 .4 5.185 -.272 C 4.48 -.944 3.664 -1.478 2.736 -1.872 C 1.809 -2.267 .843 -2.464 -.159 -2.464 L -2.88 -2.464 L -2.912 -4.832 C -2.912 -5.43 -2.896 -5.91 -2.863 -6.272 C -2.832 -6.635 -2.763 -6.917 -2.655 -7.12 C -2.549 -7.323 -2.399 -7.461 -2.208 -7.536 C -2.016 -7.611 -1.76 -7.648 -1.439 -7.648 L -.976 -7.648 C -.815 -7.648 -.661 -7.638 -.512 -7.616 C -.341 -7.595 -.182 -7.574 -.031 -7.552 L .097 -7.744 L -.224 -9.824 C -.757 -9.824 -1.279 -9.813 -1.792 -9.792 C -2.219 -9.771 -2.661 -9.754 -3.12 -9.744 C -3.579 -9.733 -3.957 -9.728 -4.256 -9.728 C -4.661 -9.728 -5.163 -9.739 -5.76 -9.76 C -6.357 -9.781 -6.938 -9.808 -7.504 -9.84 C -8.069 -9.872 -8.555 -9.904 -8.96 -9.936 C -9.365 -9.968 -9.579 -9.984 -9.6 -9.984 L -9.344 -7.808 C -8.49 -7.659 -7.909 -7.403 -7.6 -7.04 C -7.291 -6.678 -7.136 -6.048 -7.136 -5.152 L -7.104 7.008 C -7.104 7.69 -7.173 8.149 -7.312 8.384 C -7.45 8.619 -7.723 8.736 -8.128 8.736 C -8.234 8.736 -8.357 8.73 -8.496 8.72 C -8.635 8.709 -8.757 8.704 -8.863 8.704 C -8.991 8.683 -9.12 8.672 -9.248 8.672 L -9.407 8.928 Z "/>
<path transform="matrix(1,0,0,-1,99.2568,32.888704)" d="M 0 0 C 1.835 0 2.752 1.429 2.752 4.288 C 2.752 6.336 2.48 7.856 1.937 8.848 C 1.393 9.84 .608 10.336 -.416 10.336 C -2.251 10.336 -3.168 8.906 -3.168 6.048 C -3.168 4 -2.896 2.48 -2.352 1.488 C -1.808 .496 -1.023 0 0 0 M -.64 -2.464 C -1.664 -2.464 -2.592 -2.288 -3.424 -1.936 C -4.256 -1.584 -4.971 -1.088 -5.567 -.448 C -6.165 .192 -6.624 .96 -6.943 1.856 C -7.264 2.752 -7.424 3.754 -7.424 4.864 C -7.424 6.08 -7.237 7.194 -6.863 8.208 C -6.49 9.221 -5.963 10.09 -5.279 10.816 C -4.597 11.541 -3.781 12.101 -2.832 12.496 C -1.883 12.891 -.832 13.088 .32 13.088 C 1.365 13.088 2.305 12.917 3.137 12.576 C 3.969 12.234 4.678 11.749 5.265 11.12 C 5.851 10.49 6.299 9.723 6.608 8.816 C 6.917 7.909 7.072 6.891 7.072 5.76 C 7.072 4.544 6.886 3.429 6.513 2.416 C 6.139 1.402 5.616 .533 4.944 -.192 C 4.272 -.917 3.461 -1.478 2.513 -1.872 C 1.562 -2.267 .513 -2.464 -.64 -2.464 "/>
<path transform="matrix(1,0,0,-1,112.5371,35.3525)" d="M 0 0 C -.662 0 -1.254 .043 -1.776 .128 C -2.299 .213 -2.742 .309 -3.104 .416 C -3.531 .544 -3.926 .693 -4.288 .864 L -4.48 1.216 C -4.459 1.429 -4.427 1.712 -4.384 2.064 C -4.342 2.416 -4.299 2.789 -4.256 3.184 C -4.214 3.578 -4.176 3.973 -4.145 4.368 C -4.112 4.762 -4.086 5.109 -4.064 5.408 L -2.24 5.6 C -2.24 3.445 -1.302 2.368 .576 2.368 C 1.173 2.368 1.674 2.501 2.08 2.768 C 2.484 3.034 2.688 3.37 2.688 3.776 C 2.688 3.989 2.645 4.181 2.56 4.352 C 2.475 4.522 2.309 4.704 2.063 4.896 C 1.818 5.088 1.493 5.301 1.088 5.536 C .683 5.771 .16 6.037 -.48 6.336 C -1.76 6.933 -2.693 7.568 -3.28 8.24 C -3.867 8.912 -4.16 9.706 -4.16 10.624 C -4.16 11.349 -3.995 12.016 -3.664 12.624 C -3.334 13.232 -2.875 13.749 -2.288 14.176 C -1.702 14.602 -1.003 14.938 -.192 15.184 C .618 15.429 1.515 15.552 2.496 15.552 C 3.008 15.552 3.482 15.52 3.92 15.456 C 4.356 15.392 4.735 15.328 5.056 15.264 C 5.439 15.178 5.781 15.083 6.08 14.976 L 6.271 14.624 C 6.208 14.218 6.133 13.792 6.048 13.344 C 5.983 12.96 5.914 12.517 5.84 12.016 C 5.765 11.514 5.706 10.997 5.664 10.464 L 3.808 10.368 C 3.808 10.432 3.818 10.506 3.84 10.592 C 3.84 10.656 3.845 10.714 3.855 10.768 C 3.866 10.821 3.872 10.869 3.872 10.912 C 3.851 12.362 3.104 13.088 1.632 13.088 C 1.077 13.088 .618 12.96 .256 12.704 C -.107 12.448 -.288 12.117 -.288 11.712 C -.288 11.306 -.123 10.933 .208 10.592 C .538 10.25 1.088 9.898 1.855 9.536 C 2.794 9.088 3.567 8.682 4.176 8.32 C 4.784 7.957 5.269 7.594 5.632 7.232 C 5.994 6.869 6.245 6.49 6.384 6.096 C 6.522 5.701 6.592 5.269 6.592 4.8 C 6.592 4.117 6.421 3.488 6.08 2.912 C 5.738 2.336 5.274 1.829 4.687 1.392 C 4.101 .954 3.402 .613 2.592 .368 C 1.781 .123 .917 0 0 0 "/>
<path transform="matrix(1,0,0,-1,122.3926,24.313)" d="M 0 0 C 0 .683 -.117 1.136 -.352 1.36 C -.587 1.584 -1.045 1.707 -1.728 1.728 L -2.048 1.952 L -1.824 3.552 C -1.142 3.872 -.47 4.229 .192 4.624 C .854 5.019 1.44 5.397 1.952 5.76 C 2.549 6.165 3.104 6.581 3.616 7.008 L 4.513 6.528 C 4.469 6.315 4.427 6.069 4.384 5.792 C 4.341 5.557 4.305 5.264 4.272 4.912 C 4.24 4.56 4.203 4.171 4.16 3.744 L 7.904 3.84 L 8.032 3.68 L 7.712 1.504 L 3.968 1.6 C 3.925 .661 3.883 -.373 3.84 -1.504 C 3.797 -2.635 3.776 -3.904 3.776 -5.312 C 3.776 -6.208 3.937 -6.859 4.256 -7.264 C 4.576 -7.669 5.099 -7.872 5.824 -7.872 C 6.272 -7.872 6.698 -7.797 7.104 -7.648 C 7.317 -7.584 7.521 -7.509 7.712 -7.424 L 8.097 -8.48 C 7.584 -8.949 7.093 -9.376 6.624 -9.76 C 6.219 -10.08 5.809 -10.373 5.393 -10.64 C 4.977 -10.906 4.65 -11.04 4.416 -11.04 C 2.88 -11.04 1.76 -10.725 1.057 -10.096 C .353 -9.467 0 -8.469 0 -7.104 Z "/>
<path transform="matrix(1,0,0,-1,133.208,24.2168)" d="M 0 0 C 0 1.045 -.353 1.568 -1.057 1.568 C -1.228 1.568 -1.419 1.546 -1.632 1.504 C -1.718 1.482 -1.803 1.472 -1.888 1.472 L -1.696 3.36 C -1.014 3.466 -.325 3.579 .368 3.696 C 1.061 3.813 1.685 3.925 2.24 4.032 L 4.16 4.416 L 4.479 3.872 C 4.352 3.616 4.24 3.179 4.144 2.56 C 4.048 1.941 3.957 1.216 3.872 .384 C 3.786 -.448 3.723 -1.344 3.68 -2.304 C 3.637 -3.264 3.616 -4.213 3.616 -5.152 C 3.616 -6.88 4.276 -7.744 5.6 -7.744 C 6.068 -7.744 6.533 -7.616 6.992 -7.36 C 7.45 -7.104 7.893 -6.837 8.32 -6.56 L 8.32 -.032 C 8.32 .586 8.229 .997 8.048 1.2 C 7.866 1.402 7.498 1.515 6.943 1.536 C 6.858 1.536 6.752 1.531 6.624 1.52 C 6.496 1.509 6.421 1.504 6.399 1.504 L 6.656 3.36 C 7.338 3.466 8.037 3.573 8.752 3.68 C 9.467 3.787 10.112 3.893 10.688 4 C 11.37 4.106 12.021 4.224 12.64 4.352 L 12.96 3.808 C 12.832 3.552 12.72 3.099 12.624 2.448 C 12.528 1.797 12.437 1.008 12.352 .08 C 12.267 -.848 12.202 -1.877 12.16 -3.008 C 12.117 -4.139 12.096 -5.301 12.096 -6.496 C 12.096 -6.901 12.191 -7.222 12.384 -7.456 C 12.576 -7.691 12.853 -7.808 13.216 -7.808 C 13.408 -7.808 13.589 -7.781 13.76 -7.728 C 13.931 -7.675 14.091 -7.616 14.24 -7.552 C 14.41 -7.467 14.57 -7.371 14.72 -7.264 L 15.231 -7.936 C 14.891 -8.491 14.528 -8.981 14.144 -9.408 C 13.824 -9.792 13.461 -10.149 13.056 -10.48 C 12.65 -10.811 12.256 -11.029 11.872 -11.136 C 9.931 -11.136 8.843 -10.315 8.607 -8.672 L 8.352 -8.544 C 7.541 -9.312 6.805 -9.931 6.144 -10.4 C 5.482 -10.869 5.034 -11.104 4.8 -11.104 C 3.157 -11.104 1.909 -10.763 1.056 -10.08 C .202 -9.397 -.225 -8.395 -.225 -7.072 Z "/>
<path transform="matrix(1,0,0,-1,149.0801,33.2407)" d="M 0 0 C .362 .085 .65 .192 .863 .32 C 1.077 .448 1.236 .608 1.344 .8 C 1.45 .992 1.515 1.232 1.536 1.52 C 1.557 1.808 1.567 2.154 1.567 2.56 L 1.567 17.376 C 1.567 17.931 1.498 18.341 1.359 18.608 C 1.221 18.875 .991 19.04 .672 19.104 C .501 19.146 .293 19.157 .048 19.136 C -.198 19.114 -.406 19.104 -.576 19.104 L -.641 19.52 L -.48 20.992 C .267 21.099 1.028 21.205 1.808 21.312 C 2.586 21.418 3.296 21.525 3.936 21.632 C 4.683 21.738 5.407 21.867 6.111 22.016 L 6.336 21.408 C 6.187 21.237 6.053 20.613 5.936 19.536 C 5.818 18.458 5.717 17.04 5.632 15.28 C 5.546 13.52 5.477 11.477 5.424 9.152 C 5.37 6.827 5.344 4.331 5.344 1.664 C 5.344 1.13 5.413 .757 5.552 .544 C 5.69 .331 5.93 .224 6.271 .224 L 6.56 .224 C 6.687 .224 6.805 .234 6.912 .256 C 7.04 .256 7.188 .267 7.359 .288 L 7.424 .096 L 7.104 -1.824 C 6.634 -1.824 6.176 -1.813 5.728 -1.792 C 5.344 -1.771 4.943 -1.754 4.527 -1.744 C 4.111 -1.733 3.744 -1.728 3.424 -1.728 C 3.019 -1.728 2.603 -1.744 2.176 -1.776 C 1.749 -1.808 1.354 -1.845 .991 -1.888 C .564 -1.931 .148 -1.973 -.256 -2.016 Z "/>
<path transform="matrix(1,0,0,-1,165.624,28.2168)" d="M 0 0 L -3.359 -.928 C -3.851 -1.078 -4.096 -1.419 -4.096 -1.952 C -4.096 -2.507 -3.936 -2.971 -3.616 -3.344 C -3.296 -3.717 -2.869 -3.904 -2.336 -3.904 C -2.016 -3.904 -1.647 -3.819 -1.231 -3.648 C -.815 -3.478 -.427 -3.264 -.063 -3.008 Z M .097 2.496 C .097 3.413 -.139 4.123 -.607 4.624 C -1.077 5.125 -1.749 5.376 -2.624 5.376 C -3.115 5.376 -3.579 5.296 -4.016 5.136 C -4.453 4.976 -4.854 4.8 -5.216 4.608 C -5.621 4.373 -6.005 4.128 -6.368 3.872 L -6.656 4.032 L -7.231 5.952 C -6.399 6.4 -5.61 6.805 -4.864 7.168 C -4.224 7.466 -3.567 7.749 -2.896 8.016 C -2.224 8.283 -1.696 8.416 -1.312 8.416 C -.373 8.416 .433 8.304 1.104 8.08 C 1.776 7.856 2.331 7.546 2.769 7.152 C 3.205 6.757 3.525 6.293 3.729 5.76 C 3.931 5.227 4.032 4.65 4.032 4.032 C 4.032 3.754 4 3.323 3.937 2.736 C 3.872 2.149 3.797 1.525 3.712 .864 C 3.627 .203 3.552 -.443 3.488 -1.072 C 3.424 -1.702 3.393 -2.187 3.393 -2.528 C 3.393 -2.912 3.493 -3.222 3.696 -3.456 C 3.898 -3.691 4.182 -3.808 4.544 -3.808 C 4.736 -3.808 4.917 -3.781 5.088 -3.728 C 5.259 -3.675 5.419 -3.616 5.568 -3.552 C 5.738 -3.467 5.898 -3.371 6.048 -3.264 L 6.561 -3.936 C 6.24 -4.469 5.909 -4.949 5.568 -5.376 C 5.27 -5.739 4.938 -6.096 4.576 -6.448 C 4.213 -6.8 3.84 -7.029 3.456 -7.136 C 1.493 -7.136 .416 -6.315 .225 -4.672 L -.032 -4.576 C -.672 -5.216 -1.317 -5.781 -1.968 -6.272 C -2.619 -6.763 -3.146 -7.008 -3.552 -7.008 C -4.171 -7.008 -4.747 -6.891 -5.28 -6.656 C -5.813 -6.421 -6.277 -6.096 -6.672 -5.68 C -7.066 -5.264 -7.376 -4.768 -7.6 -4.192 C -7.824 -3.616 -7.936 -2.998 -7.936 -2.336 C -7.936 -1.675 -7.766 -1.099 -7.424 -.608 C -7.083 -.118 -6.635 .192 -6.08 .32 L .064 1.76 Z "/>
<path transform="matrix(1,0,0,-1,174.3281,24.313)" d="M 0 0 C 0 .683 -.117 1.136 -.352 1.36 C -.587 1.584 -1.045 1.707 -1.728 1.728 L -2.048 1.952 L -1.824 3.552 C -1.142 3.872 -.47 4.229 .192 4.624 C .854 5.019 1.44 5.397 1.952 5.76 C 2.549 6.165 3.104 6.581 3.616 7.008 L 4.513 6.528 C 4.469 6.315 4.427 6.069 4.384 5.792 C 4.341 5.557 4.305 5.264 4.272 4.912 C 4.24 4.56 4.203 4.171 4.16 3.744 L 7.904 3.84 L 8.032 3.68 L 7.712 1.504 L 3.968 1.6 C 3.925 .661 3.883 -.373 3.84 -1.504 C 3.797 -2.635 3.776 -3.904 3.776 -5.312 C 3.776 -6.208 3.937 -6.859 4.256 -7.264 C 4.576 -7.669 5.099 -7.872 5.824 -7.872 C 6.272 -7.872 6.698 -7.797 7.104 -7.648 C 7.317 -7.584 7.521 -7.509 7.712 -7.424 L 8.097 -8.48 C 7.584 -8.949 7.093 -9.376 6.624 -9.76 C 6.219 -10.08 5.809 -10.373 5.393 -10.64 C 4.977 -10.906 4.65 -11.04 4.416 -11.04 C 2.88 -11.04 1.76 -10.725 1.057 -10.096 C .353 -9.467 0 -8.469 0 -7.104 Z "/>
<path transform="matrix(1,0,0,-1,192.0234,25.4648)" d="M 0 0 C .234 .042 .395 .106 .479 .192 C .565 .277 .608 .458 .608 .736 C .608 2.314 -.064 3.104 -1.408 3.104 C -2.219 3.104 -2.875 2.821 -3.376 2.256 C -3.878 1.69 -4.182 .864 -4.288 -.224 Z M -4.288 -2.016 L -4.288 -2.304 C -4.224 -3.733 -3.84 -4.832 -3.136 -5.6 C -2.432 -6.368 -1.483 -6.752 -.288 -6.752 C .202 -6.752 .683 -6.704 1.152 -6.608 C 1.621 -6.512 2.037 -6.4 2.4 -6.272 C 2.805 -6.144 3.188 -5.984 3.552 -5.792 L 3.808 -5.888 L 4.32 -7.52 C 3.701 -7.968 3.072 -8.363 2.432 -8.704 C 1.877 -9.003 1.28 -9.275 .64 -9.52 C 0 -9.765 -.608 -9.888 -1.184 -9.888 C -2.315 -9.888 -3.328 -9.717 -4.224 -9.376 C -5.12 -9.035 -5.883 -8.544 -6.512 -7.904 C -7.142 -7.264 -7.621 -6.491 -7.952 -5.584 C -8.283 -4.677 -8.448 -3.648 -8.448 -2.496 C -8.448 -1.344 -8.256 -.267 -7.872 .736 C -7.488 1.739 -6.96 2.603 -6.288 3.328 C -5.616 4.053 -4.812 4.624 -3.872 5.04 C -2.934 5.456 -1.92 5.664 -.832 5.664 C 2.752 5.664 4.544 3.829 4.544 .16 C 4.544 -.075 4.533 -.299 4.512 -.512 C 4.49 -.726 4.458 -.917 4.416 -1.088 C 4.373 -1.301 4.341 -1.493 4.32 -1.664 L 3.936 -2.016 Z "/>
</g>
</g>
</g>
</svg>
