<?xml version="1.0" encoding="utf-8"?>
<!-- Generator: Adobe Illustrator 22.0.1, SVG Export Plug-In . SVG Version: 6.00 Build 0)  -->
<svg version="1.1" id="Layer_1" xmlns="http://www.w3.org/2000/svg" xmlns:xlink="http://www.w3.org/1999/xlink" x="0px" y="0px"
	 viewBox="0 0 185 50" style="enable-background:new 0 0 185 50;" xml:space="preserve">
<style type="text/css">
	.st0{enable-background:new    ;}
	.st1{fill:#FFFFFF;}
</style>
<g class="st0">
	<g id="Layer-1">
		<g>
			<g>
				<path d="M30.6,44H7.8c-4.2,0-7.6-3.4-7.6-7.6V13.6C0.2,9.4,3.6,6,7.8,6h22.8c4.2,0,7.6,3.4,7.6,7.6v22.8
					C38.2,40.6,34.8,44,30.6,44"/>
				<path class="st1" d="M25.7,15.9c-1.4,0-2.5,1.1-2.5,2.5c0,0.4,0.1,0.8,0.3,1.2l-9.8,9.8c-0.3-0.2-0.7-0.3-1.1-0.3
					c-1.4,0-2.5,1.1-2.5,2.5c0,1.4,1.1,2.5,2.5,2.5s2.5-1.1,2.5-2.5c0-0.4-0.1-0.8-0.3-1.2l9.8-9.8c0.3,0.2,0.7,0.3,1.1,0.3
					c1.4,0,2.5-1.1,2.5-2.5S27.1,15.9,25.7,15.9"/>
				<path d="M72.5,25.2c1.9-0.4,2.9-1.9,2.9-4.4c0-1.3-0.4-2.3-1.1-2.9c-0.7-0.6-1.9-0.9-3.6-0.9c-0.3,0-0.5,0-0.6,0.1
					c-0.1,0.1-0.1,0.2-0.1,0.5c-0.1,1.1-0.2,2.3-0.2,3.6s-0.1,2.5-0.1,3.7L72.5,25.2z M63.4,14.4h0.8c0.3,0,0.6,0,1,0
					c0.4,0,0.8,0,1.2,0h1.1c0.3,0,0.7,0,1.2,0c0.5,0,1.1,0,1.6,0c0.6,0,1.3-0.1,2-0.1c1.5,0,2.7,0.2,3.7,0.5c1,0.4,1.8,0.8,2.4,1.4
					s1,1.2,1.3,2c0.2,0.7,0.4,1.5,0.4,2.3c0,1-0.2,1.9-0.6,2.8c-0.4,0.9-1,1.6-1.7,2.3c-0.7,0.7-1.5,1.2-2.4,1.6
					c-0.9,0.4-1.9,0.6-2.9,0.6h-2.7l0,2.4c0,0.6,0,1.1,0,1.4c0,0.4,0.1,0.6,0.2,0.8c0.1,0.2,0.3,0.3,0.4,0.4
					c0.2,0.1,0.4,0.1,0.8,0.1h0.5c0.2,0,0.3,0,0.5,0c0.2,0,0.3,0,0.5-0.1l0.1,0.2l-0.3,2.1c-0.5,0-1.1,0-1.6,0c-0.4,0-0.9,0-1.3,0
					c-0.5,0-0.8,0-1.1,0c-0.4,0-0.9,0-1.5,0c-0.6,0-1.2,0-1.7,0.1c-0.6,0-1.1,0.1-1.5,0.1c-0.4,0-0.6,0-0.6,0l0.3-2.2
					c0.9-0.1,1.4-0.4,1.7-0.8c0.3-0.4,0.5-1,0.5-1.9l0-12.2c0-0.7-0.1-1.1-0.2-1.4c-0.1-0.2-0.4-0.4-0.8-0.4c-0.1,0-0.2,0-0.4,0
					c-0.1,0-0.3,0-0.4,0c-0.1,0-0.3,0-0.4,0l-0.2-0.3L63.4,14.4z"/>
				<path d="M87.3,32.9c1.8,0,2.8-1.4,2.8-4.3c0-2-0.3-3.6-0.8-4.6c-0.5-1-1.3-1.5-2.4-1.5c-1.8,0-2.8,1.4-2.8,4.3
					c0,2,0.3,3.6,0.8,4.6C85.5,32.4,86.3,32.9,87.3,32.9 M86.7,35.4c-1,0-2-0.2-2.8-0.5s-1.5-0.8-2.1-1.5c-0.6-0.6-1.1-1.4-1.4-2.3
					c-0.3-0.9-0.5-1.9-0.5-3c0-1.2,0.2-2.3,0.6-3.3c0.4-1,0.9-1.9,1.6-2.6c0.7-0.7,1.5-1.3,2.4-1.7c0.9-0.4,2-0.6,3.2-0.6
					c1,0,2,0.2,2.8,0.5c0.8,0.3,1.5,0.8,2.1,1.5c0.6,0.6,1,1.4,1.3,2.3s0.5,1.9,0.5,3.1c0,1.2-0.2,2.3-0.6,3.3
					c-0.4,1-0.9,1.9-1.6,2.6c-0.7,0.7-1.5,1.3-2.4,1.7C88.9,35.2,87.8,35.4,86.7,35.4"/>
				<path d="M100.6,35.4c-0.7,0-1.3,0-1.8-0.1c-0.5-0.1-1-0.2-1.3-0.3c-0.4-0.1-0.8-0.3-1.2-0.4l-0.2-0.4c0-0.2,0.1-0.5,0.1-0.8
					c0-0.4,0.1-0.7,0.1-1.1c0-0.4,0.1-0.8,0.1-1.2c0-0.4,0.1-0.7,0.1-1l1.8-0.2c0,2.2,0.9,3.2,2.8,3.2c0.6,0,1.1-0.1,1.5-0.4
					c0.4-0.3,0.6-0.6,0.6-1c0-0.2,0-0.4-0.1-0.6c-0.1-0.2-0.3-0.4-0.5-0.5c-0.2-0.2-0.6-0.4-1-0.6c-0.4-0.2-0.9-0.5-1.6-0.8
					c-1.3-0.6-2.2-1.2-2.8-1.9s-0.9-1.5-0.9-2.4c0-0.7,0.2-1.4,0.5-2c0.3-0.6,0.8-1.1,1.4-1.6c0.6-0.4,1.3-0.8,2.1-1
					c0.8-0.2,1.7-0.4,2.7-0.4c0.5,0,1,0,1.4,0.1c0.4,0.1,0.8,0.1,1.1,0.2c0.4,0.1,0.7,0.2,1,0.3l0.2,0.4c-0.1,0.4-0.1,0.8-0.2,1.3
					c-0.1,0.4-0.1,0.8-0.2,1.3c-0.1,0.5-0.1,1-0.2,1.6l-1.9,0.1c0-0.1,0-0.1,0-0.2c0-0.1,0-0.1,0-0.2c0-0.1,0-0.1,0-0.1
					c0-1.5-0.8-2.2-2.2-2.2c-0.6,0-1,0.1-1.4,0.4c-0.4,0.3-0.5,0.6-0.5,1c0,0.4,0.2,0.8,0.5,1.1c0.3,0.3,0.9,0.7,1.6,1.1
					c0.9,0.4,1.7,0.9,2.3,1.2c0.6,0.4,1.1,0.7,1.5,1.1c0.4,0.4,0.6,0.7,0.8,1.1c0.1,0.4,0.2,0.8,0.2,1.3c0,0.7-0.2,1.3-0.5,1.9
					c-0.3,0.6-0.8,1.1-1.4,1.5c-0.6,0.4-1.3,0.8-2.1,1C102.4,35.2,101.5,35.4,100.6,35.4"/>
				<path d="M110.4,24.3c0-0.7-0.1-1.1-0.4-1.4c-0.2-0.2-0.7-0.3-1.4-0.4l-0.3-0.2l0.2-1.6c0.7-0.3,1.4-0.7,2-1.1s1.2-0.8,1.8-1.1
					c0.6-0.4,1.2-0.8,1.7-1.2l0.9,0.5c0,0.2-0.1,0.5-0.1,0.7c0,0.2-0.1,0.5-0.1,0.9c0,0.4-0.1,0.7-0.1,1.2l3.7-0.1l0.1,0.2l-0.3,2.2
					l-3.7-0.1c0,0.9-0.1,2-0.1,3.1s-0.1,2.4-0.1,3.8c0,0.9,0.2,1.5,0.5,2c0.3,0.4,0.8,0.6,1.6,0.6c0.4,0,0.9-0.1,1.3-0.2
					c0.2-0.1,0.4-0.1,0.6-0.2l0.4,1.1c-0.5,0.5-1,0.9-1.5,1.3c-0.4,0.3-0.8,0.6-1.2,0.9c-0.4,0.3-0.7,0.4-1,0.4
					c-1.5,0-2.7-0.3-3.4-0.9c-0.7-0.6-1.1-1.6-1.1-3V24.3z"/>
				<path d="M121.2,24.2c0-1-0.4-1.6-1.1-1.6c-0.2,0-0.4,0-0.6,0.1c-0.1,0-0.2,0-0.3,0l0.2-1.9c0.7-0.1,1.4-0.2,2.1-0.3
					c0.7-0.1,1.3-0.2,1.9-0.3l1.9-0.4l0.3,0.5c-0.1,0.3-0.2,0.7-0.3,1.3c-0.1,0.6-0.2,1.3-0.3,2.2c-0.1,0.8-0.1,1.7-0.2,2.7
					c0,1-0.1,1.9-0.1,2.8c0,1.7,0.7,2.6,2,2.6c0.5,0,0.9-0.1,1.4-0.4c0.5-0.3,0.9-0.5,1.3-0.8v-6.5c0-0.6-0.1-1-0.3-1.2
					c-0.2-0.2-0.5-0.3-1.1-0.3c-0.1,0-0.2,0-0.3,0c-0.1,0-0.2,0-0.2,0l0.3-1.9c0.7-0.1,1.4-0.2,2.1-0.3c0.7-0.1,1.4-0.2,1.9-0.3
					c0.7-0.1,1.3-0.2,2-0.4l0.3,0.5c-0.1,0.3-0.2,0.7-0.3,1.4c-0.1,0.7-0.2,1.4-0.3,2.4c-0.1,0.9-0.1,2-0.2,3.1
					c0,1.1-0.1,2.3-0.1,3.5c0,0.4,0.1,0.7,0.3,1c0.2,0.2,0.5,0.4,0.8,0.4c0.2,0,0.4,0,0.5-0.1c0.2-0.1,0.3-0.1,0.5-0.2
					c0.2-0.1,0.3-0.2,0.5-0.3l0.5,0.7c-0.3,0.6-0.7,1-1.1,1.5c-0.3,0.4-0.7,0.7-1.1,1.1c-0.4,0.3-0.8,0.5-1.2,0.7
					c-1.9,0-3-0.8-3.3-2.5l-0.3-0.1c-0.8,0.8-1.5,1.4-2.2,1.9c-0.7,0.5-1.1,0.7-1.3,0.7c-1.6,0-2.9-0.3-3.7-1
					c-0.9-0.7-1.3-1.7-1.3-3L121.2,24.2z"/>
				<path d="M137.1,33.2c0.4-0.1,0.6-0.2,0.9-0.3c0.2-0.1,0.4-0.3,0.5-0.5c0.1-0.2,0.2-0.4,0.2-0.7c0-0.3,0-0.6,0-1V15.9
					c0-0.6-0.1-1-0.2-1.2c-0.1-0.3-0.4-0.4-0.7-0.5c-0.2,0-0.4-0.1-0.6,0c-0.2,0-0.5,0-0.6,0l-0.1-0.4l0.2-1.5
					c0.7-0.1,1.5-0.2,2.3-0.3c0.8-0.1,1.5-0.2,2.1-0.3c0.7-0.1,1.5-0.2,2.2-0.4l0.2,0.6c-0.1,0.2-0.3,0.8-0.4,1.9
					c-0.1,1.1-0.2,2.5-0.3,4.3c-0.1,1.8-0.2,3.8-0.2,6.1c-0.1,2.3-0.1,4.8-0.1,7.5c0,0.5,0.1,0.9,0.2,1.1c0.1,0.2,0.4,0.3,0.7,0.3
					h0.3c0.1,0,0.2,0,0.4,0c0.1,0,0.3,0,0.4,0l0.1,0.2l-0.3,1.9c-0.5,0-0.9,0-1.4,0c-0.4,0-0.8,0-1.2,0c-0.4,0-0.8,0-1.1,0
					c-0.4,0-0.8,0-1.2,0c-0.4,0-0.8,0.1-1.2,0.1c-0.4,0-0.8,0.1-1.2,0.1L137.1,33.2z"/>
				<path d="M153.7,28.2l-3.4,0.9c-0.5,0.1-0.7,0.5-0.7,1c0,0.6,0.2,1,0.5,1.4c0.3,0.4,0.7,0.6,1.3,0.6c0.3,0,0.7-0.1,1.1-0.3
					c0.4-0.2,0.8-0.4,1.2-0.6L153.7,28.2z M153.8,25.7c0-0.9-0.2-1.6-0.7-2.1c-0.5-0.5-1.1-0.8-2-0.8c-0.5,0-1,0.1-1.4,0.2
					s-0.8,0.3-1.2,0.5c-0.4,0.2-0.8,0.5-1.2,0.7l-0.3-0.2l-0.6-1.9c0.8-0.4,1.6-0.9,2.4-1.2c0.6-0.3,1.3-0.6,2-0.8
					c0.7-0.3,1.2-0.4,1.6-0.4c0.9,0,1.7,0.1,2.4,0.3c0.7,0.2,1.2,0.5,1.7,0.9c0.4,0.4,0.8,0.9,1,1.4c0.2,0.5,0.3,1.1,0.3,1.7
					c0,0.3,0,0.7-0.1,1.3c-0.1,0.6-0.1,1.2-0.2,1.9c-0.1,0.7-0.2,1.3-0.2,1.9c-0.1,0.6-0.1,1.1-0.1,1.5c0,0.4,0.1,0.7,0.3,0.9
					c0.2,0.2,0.5,0.4,0.8,0.4c0.2,0,0.4,0,0.5-0.1c0.2-0.1,0.3-0.1,0.5-0.2c0.2-0.1,0.3-0.2,0.5-0.3l0.5,0.7c-0.3,0.5-0.7,1-1,1.4
					c-0.3,0.4-0.6,0.7-1,1.1c-0.4,0.4-0.7,0.6-1.1,0.7c-2,0-3-0.8-3.2-2.5l-0.3-0.1c-0.6,0.6-1.3,1.2-1.9,1.7
					c-0.7,0.5-1.2,0.7-1.6,0.7c-0.6,0-1.2-0.1-1.7-0.4c-0.5-0.2-1-0.6-1.4-1c-0.4-0.4-0.7-0.9-0.9-1.5c-0.2-0.6-0.3-1.2-0.3-1.9
					c0-0.7,0.2-1.2,0.5-1.7c0.3-0.5,0.8-0.8,1.3-0.9l6.1-1.4L153.8,25.7z"/>
				<path d="M162.4,24.3c0-0.7-0.1-1.1-0.4-1.4c-0.2-0.2-0.7-0.3-1.4-0.4l-0.3-0.2l0.2-1.6c0.7-0.3,1.4-0.7,2-1.1
					c0.7-0.4,1.2-0.8,1.8-1.1c0.6-0.4,1.2-0.8,1.7-1.2l0.9,0.5c0,0.2-0.1,0.5-0.1,0.7c0,0.2-0.1,0.5-0.1,0.9c0,0.4-0.1,0.7-0.1,1.2
					l3.7-0.1l0.1,0.2l-0.3,2.2l-3.7-0.1c0,0.9-0.1,2-0.1,3.1s-0.1,2.4-0.1,3.8c0,0.9,0.2,1.5,0.5,2c0.3,0.4,0.8,0.6,1.6,0.6
					c0.4,0,0.9-0.1,1.3-0.2c0.2-0.1,0.4-0.1,0.6-0.2l0.4,1.1c-0.5,0.5-1,0.9-1.5,1.3c-0.4,0.3-0.8,0.6-1.2,0.9
					c-0.4,0.3-0.7,0.4-1,0.4c-1.5,0-2.7-0.3-3.4-0.9c-0.7-0.6-1.1-1.6-1.1-3V24.3z"/>
				<path d="M180.1,25.5c0.2,0,0.4-0.1,0.5-0.2c0.1-0.1,0.1-0.3,0.1-0.5c0-1.6-0.7-2.4-2-2.4c-0.8,0-1.5,0.3-2,0.8
					c-0.5,0.6-0.8,1.4-0.9,2.5L180.1,25.5z M175.8,27.5v0.3c0.1,1.4,0.4,2.5,1.2,3.3c0.7,0.8,1.7,1.2,2.8,1.2c0.5,0,1,0,1.4-0.1
					c0.5-0.1,0.9-0.2,1.2-0.3c0.4-0.1,0.8-0.3,1.2-0.5l0.3,0.1l0.5,1.6c-0.6,0.4-1.2,0.8-1.9,1.2c-0.6,0.3-1.2,0.6-1.8,0.8
					c-0.6,0.2-1.2,0.4-1.8,0.4c-1.1,0-2.1-0.2-3-0.5c-0.9-0.3-1.7-0.8-2.3-1.5c-0.6-0.6-1.1-1.4-1.4-2.3c-0.3-0.9-0.5-1.9-0.5-3.1
					s0.2-2.2,0.6-3.2s0.9-1.9,1.6-2.6c0.7-0.7,1.5-1.3,2.4-1.7c0.9-0.4,2-0.6,3-0.6c3.6,0,5.4,1.8,5.4,5.5c0,0.2,0,0.5,0,0.7
					c0,0.2-0.1,0.4-0.1,0.6c0,0.2-0.1,0.4-0.1,0.6l-0.4,0.4H175.8z"/>
			</g>
		</g>
	</g>
</g>
</svg>
