<svg width="100" height="40" viewBox="0 0 100 40" fill="none" xmlns="http://www.w3.org/2000/svg">
<rect width="100" height="40" rx="5" fill="black"/>
<path d="M23.3843 24.592H23.3043C23.2296 24.8053 23.1283 25.008 23.0003 25.2C22.883 25.392 22.7283 25.5627 22.5363 25.712C22.3443 25.8613 22.115 25.9787 21.8483 26.064C21.5923 26.1493 21.2936 26.192 20.9523 26.192C20.0883 26.192 19.4323 25.9093 18.9843 25.344C18.547 24.768 18.3283 23.9467 18.3283 22.88V17.6H20.6963V22.672C20.6963 23.184 20.787 23.5787 20.9683 23.856C21.1496 24.1333 21.459 24.272 21.8963 24.272C22.0776 24.272 22.259 24.2453 22.4403 24.192C22.6216 24.1387 22.7816 24.064 22.9203 23.968C23.059 23.8613 23.171 23.7333 23.2563 23.584C23.3416 23.4347 23.3843 23.2587 23.3843 23.056V17.6H25.7523V26H23.3843V24.592ZM27.9556 17.6H30.3236V19.008H30.4036C30.5209 18.5387 30.7876 18.1547 31.2036 17.856C31.6302 17.5573 32.1156 17.408 32.6596 17.408C33.7262 17.408 34.5316 17.7813 35.0756 18.528C35.6196 19.2747 35.8916 20.3627 35.8916 21.792C35.8916 23.2213 35.6196 24.3147 35.0756 25.072C34.5316 25.8187 33.7262 26.192 32.6596 26.192C32.3822 26.192 32.1209 26.1493 31.8756 26.064C31.6302 25.9893 31.4062 25.8827 31.2036 25.744C31.0116 25.5947 30.8462 25.424 30.7076 25.232C30.5689 25.0293 30.4676 24.816 30.4036 24.592H30.3236V29.2H27.9556V17.6ZM31.8756 24.272C32.3236 24.272 32.6916 24.1173 32.9796 23.808C33.2782 23.488 33.4276 23.0613 33.4276 22.528V21.072C33.4276 20.5387 33.2782 20.1173 32.9796 19.808C32.6916 19.488 32.3236 19.328 31.8756 19.328C31.4276 19.328 31.0542 19.44 30.7556 19.664C30.4676 19.8773 30.3236 20.176 30.3236 20.56V23.04C30.3236 23.424 30.4676 23.728 30.7556 23.952C31.0542 24.1653 31.4276 24.272 31.8756 24.272ZM42.8419 24.592H42.7619C42.6979 24.816 42.5966 25.0293 42.4579 25.232C42.3193 25.424 42.1486 25.5947 41.9459 25.744C41.7539 25.8827 41.5299 25.9893 41.2739 26.064C41.0286 26.1493 40.7726 26.192 40.5059 26.192C39.4393 26.192 38.6339 25.8187 38.0899 25.072C37.5459 24.3147 37.2739 23.2213 37.2739 21.792C37.2739 20.3627 37.5459 19.2747 38.0899 18.528C38.6339 17.7813 39.4393 17.408 40.5059 17.408C41.0499 17.408 41.5299 17.5573 41.9459 17.856C42.3726 18.1547 42.6446 18.5387 42.7619 19.008H42.8419V14.16H45.2099V26H42.8419V24.592ZM41.2899 24.272C41.7379 24.272 42.1059 24.1653 42.3939 23.952C42.6926 23.728 42.8419 23.424 42.8419 23.04V20.56C42.8419 20.176 42.6926 19.8773 42.3939 19.664C42.1059 19.44 41.7379 19.328 41.2899 19.328C40.8419 19.328 40.4686 19.488 40.1699 19.808C39.8819 20.1173 39.7379 20.5387 39.7379 21.072V22.528C39.7379 23.0613 39.8819 23.488 40.1699 23.808C40.4686 24.1173 40.8419 24.272 41.2899 24.272ZM53.6323 26C53.2056 26 52.8483 25.8667 52.5603 25.6C52.283 25.3333 52.107 24.976 52.0323 24.528H51.9363C51.8083 25.072 51.5256 25.488 51.0883 25.776C50.651 26.0533 50.1123 26.192 49.4723 26.192C48.6296 26.192 47.9843 25.968 47.5363 25.52C47.0883 25.072 46.8643 24.48 46.8643 23.744C46.8643 22.8587 47.1843 22.2027 47.8243 21.776C48.475 21.3387 49.355 21.12 50.4643 21.12H51.7923V20.592C51.7923 20.1867 51.6856 19.8667 51.4723 19.632C51.259 19.3867 50.9016 19.264 50.4003 19.264C49.931 19.264 49.5576 19.3653 49.2803 19.568C49.003 19.7707 48.7736 20 48.5923 20.256L47.1843 19.008C47.5256 18.5067 47.9523 18.1173 48.4643 17.84C48.987 17.552 49.691 17.408 50.5763 17.408C51.771 17.408 52.667 17.6693 53.2643 18.192C53.8616 18.7147 54.1603 19.4773 54.1603 20.48V24.16H54.9443V26H53.6323ZM50.3523 24.544C50.747 24.544 51.083 24.4587 51.3603 24.288C51.6483 24.1173 51.7923 23.84 51.7923 23.456V22.464H50.6403C49.7123 22.464 49.2483 22.7787 49.2483 23.408V23.648C49.2483 23.9573 49.3443 24.1867 49.5363 24.336C49.7283 24.4747 50.0003 24.544 50.3523 24.544ZM59.3839 26C58.5626 26 57.9386 25.792 57.5119 25.376C57.0959 24.96 56.8879 24.352 56.8879 23.552V19.44H55.7039V17.6H56.2959C56.6159 17.6 56.8346 17.5253 56.9519 17.376C57.0693 17.216 57.1279 16.992 57.1279 16.704V15.328H59.2559V17.6H60.9199V19.44H59.2559V24.16H60.7919V26H59.3839ZM66.0064 26.192C65.3664 26.192 64.7958 26.0907 64.2944 25.888C63.7931 25.6747 63.3664 25.3813 63.0144 25.008C62.6731 24.624 62.4118 24.16 62.2304 23.616C62.0598 23.072 61.9744 22.464 61.9744 21.792C61.9744 21.1307 62.0598 20.5333 62.2304 20C62.4011 19.456 62.6518 18.992 62.9824 18.608C63.3238 18.224 63.7398 17.9307 64.2304 17.728C64.7211 17.5147 65.2811 17.408 65.9104 17.408C66.6038 17.408 67.1958 17.5253 67.6864 17.76C68.1878 17.9947 68.5931 18.3093 68.9024 18.704C69.2224 19.0987 69.4518 19.5573 69.5904 20.08C69.7398 20.592 69.8144 21.1307 69.8144 21.696V22.4H64.4224V22.528C64.4224 23.0827 64.5718 23.5253 64.8704 23.856C65.1691 24.176 65.6384 24.336 66.2784 24.336C66.7691 24.336 67.1691 24.24 67.4784 24.048C67.7878 23.8453 68.0758 23.6053 68.3424 23.328L69.5264 24.8C69.1531 25.2373 68.6624 25.5787 68.0544 25.824C67.4571 26.0693 66.7744 26.192 66.0064 26.192ZM65.9584 19.152C65.4784 19.152 65.0998 19.312 64.8224 19.632C64.5558 19.9413 64.4224 20.3573 64.4224 20.88V21.008H67.3664V20.864C67.3664 20.352 67.2491 19.9413 67.0144 19.632C66.7904 19.312 66.4384 19.152 65.9584 19.152ZM73.8388 26C73.0281 26 72.4308 25.8027 72.0468 25.408C71.6735 25.0133 71.4868 24.4427 71.4868 23.696V14.16H73.8548V24.16H74.9108V26H73.8388ZM81.3728 17.6H83.5808L80.3488 27.296C80.1355 27.9467 79.8315 28.4267 79.4368 28.736C79.0528 29.0453 78.4981 29.2 77.7728 29.2H76.3008V27.36H77.8848L78.1728 26.432L75.2288 17.6H77.5808L78.8128 21.52L79.4208 23.952H79.5168L80.1408 21.52L81.3728 17.6Z" fill="white"/>
</svg>
