<?xml version="1.0" encoding="utf-8"?>
<!-- Generator: Adobe Illustrator 22.0.1, SVG Export Plug-In . SVG Version: 6.00 Build 0)  -->
<svg version="1.1" id="Layer_1" xmlns="http://www.w3.org/2000/svg" xmlns:xlink="http://www.w3.org/1999/xlink" x="0px" y="0px"
	 viewBox="0 0 200 200" style="enable-background:new 0 0 200 200;" xml:space="preserve">
<style type="text/css">
	.st0{fill:#FFFFFF;}
</style>
<g>
	<path d="M159.8,200.1h-120c-22.1,0-40-17.9-40-40v-120c0-22.1,17.9-40,40-40h120c22.1,0,40,17.9,40,40v120
		C199.8,182.2,181.9,200.1,159.8,200.1"/>
	<path class="st0" d="M134.1,52.2c-7.4,0-13.2,5.8-13.2,13.2c0,2.1,0.5,4.2,1.6,6.3l-51.6,51.6c-1.6-1.1-3.7-1.6-5.8-1.6
		c-7.4,0-13.2,5.8-13.2,13.2c0,7.4,5.8,13.2,13.2,13.2c7.4,0,13.2-5.8,13.2-13.2c0-2.1-0.5-4.2-1.6-6.3L128.3,77
		c1.6,1.1,3.7,1.6,5.8,1.6c7.4,0,13.2-5.8,13.2-13.2C147.2,58,141.4,52.2,134.1,52.2"/>
</g>
</svg>
